<svg width="141" height="45" viewBox="0 0 141 45" fill="none" xmlns="http://www.w3.org/2000/svg">
<rect width="141" height="45" rx="4" fill="white"/>
<path d="M24.6619 19.4347H21.4744C21.3835 18.9119 21.2159 18.4489 20.9716 18.0455C20.7273 17.6364 20.4233 17.2898 20.0597 17.0057C19.696 16.7216 19.2813 16.5085 18.8153 16.3665C18.3551 16.2188 17.858 16.1449 17.3239 16.1449C16.375 16.1449 15.5341 16.3835 14.8011 16.8608C14.0682 17.3324 13.4943 18.0256 13.0795 18.9403C12.6648 19.8494 12.4574 20.9602 12.4574 22.2727C12.4574 23.608 12.6648 24.733 13.0795 25.6477C13.5 26.5568 14.0739 27.2443 14.8011 27.7102C15.5341 28.1705 16.3722 28.4006 17.3153 28.4006C17.8381 28.4006 18.3267 28.3324 18.7812 28.196C19.2415 28.054 19.6534 27.8466 20.017 27.5739C20.3864 27.3011 20.696 26.9659 20.946 26.5682C21.2017 26.1705 21.3778 25.7159 21.4744 25.2045L24.6619 25.2216C24.5426 26.0511 24.2841 26.8295 23.8864 27.5568C23.4943 28.2841 22.9801 28.9261 22.3438 29.483C21.7074 30.0341 20.9631 30.4659 20.1108 30.7784C19.2585 31.0852 18.3125 31.2386 17.2727 31.2386C15.7386 31.2386 14.3693 30.8835 13.1648 30.1733C11.9602 29.4631 11.0114 28.4375 10.3182 27.0966C9.625 25.7557 9.27841 24.1477 9.27841 22.2727C9.27841 20.392 9.62784 18.7841 10.3267 17.4489C11.0256 16.108 11.9773 15.0824 13.1818 14.3722C14.3864 13.6619 15.75 13.3068 17.2727 13.3068C18.2443 13.3068 19.1477 13.4432 19.983 13.7159C20.8182 13.9886 21.5625 14.3892 22.2159 14.9176C22.8693 15.4403 23.4063 16.0824 23.8267 16.8438C24.2528 17.5994 24.5313 18.4631 24.6619 19.4347ZM31.9314 31.2557C30.653 31.2557 29.545 30.9744 28.6075 30.4119C27.67 29.8494 26.9428 29.0625 26.4257 28.0511C25.9143 27.0398 25.6587 25.858 25.6587 24.5057C25.6587 23.1534 25.9143 21.9687 26.4257 20.9517C26.9428 19.9347 27.67 19.1449 28.6075 18.5824C29.545 18.0199 30.653 17.7386 31.9314 17.7386C33.2098 17.7386 34.3178 18.0199 35.2553 18.5824C36.1928 19.1449 36.9172 19.9347 37.4286 20.9517C37.9456 21.9687 38.2041 23.1534 38.2041 24.5057C38.2041 25.858 37.9456 27.0398 37.4286 28.0511C36.9172 29.0625 36.1928 29.8494 35.2553 30.4119C34.3178 30.9744 33.2098 31.2557 31.9314 31.2557ZM31.9484 28.7841C32.6416 28.7841 33.2212 28.5937 33.6871 28.2131C34.153 27.8267 34.4996 27.3097 34.7268 26.6619C34.9598 26.0142 35.0763 25.2926 35.0763 24.4972C35.0763 23.696 34.9598 22.9716 34.7268 22.3239C34.4996 21.6705 34.153 21.1506 33.6871 20.7642C33.2212 20.3778 32.6416 20.1847 31.9484 20.1847C31.2382 20.1847 30.6473 20.3778 30.1757 20.7642C29.7098 21.1506 29.3604 21.6705 29.1274 22.3239C28.9001 22.9716 28.7865 23.696 28.7865 24.4972C28.7865 25.2926 28.9001 26.0142 29.1274 26.6619C29.3604 27.3097 29.7098 27.8267 30.1757 28.2131C30.6473 28.5937 31.2382 28.7841 31.9484 28.7841ZM42.708 23.3295V31H39.6227V17.9091H42.5716V20.1335H42.725C43.0261 19.4006 43.5063 18.8182 44.1653 18.3864C44.8301 17.9545 45.6511 17.7386 46.6284 17.7386C47.5318 17.7386 48.3188 17.9318 48.9892 18.3182C49.6653 18.7045 50.1881 19.2642 50.5574 19.9972C50.9324 20.7301 51.117 21.6193 51.1114 22.6648V31H48.0261V23.142C48.0261 22.267 47.7989 21.5824 47.3443 21.0881C46.8955 20.5937 46.2733 20.3466 45.4778 20.3466C44.9381 20.3466 44.458 20.4659 44.0375 20.7045C43.6227 20.9375 43.296 21.2756 43.0574 21.7188C42.8244 22.1619 42.708 22.6989 42.708 23.3295ZM59.5847 17.9091V20.2955H52.0591V17.9091H59.5847ZM53.917 14.7727H57.0023V27.0625C57.0023 27.4773 57.0648 27.7955 57.1898 28.017C57.3205 28.233 57.4909 28.3807 57.7011 28.4602C57.9114 28.5398 58.1443 28.5795 58.4 28.5795C58.5932 28.5795 58.7693 28.5653 58.9284 28.5369C59.0932 28.5085 59.2182 28.483 59.3034 28.4602L59.8233 30.8722C59.6585 30.929 59.4227 30.9915 59.1159 31.0597C58.8148 31.1278 58.4455 31.1676 58.008 31.179C57.2352 31.2017 56.5392 31.0852 55.9199 30.8295C55.3006 30.5682 54.8091 30.1648 54.4455 29.6193C54.0875 29.0739 53.9114 28.392 53.917 27.5739V14.7727ZM64.732 31.2642C63.9024 31.2642 63.1553 31.1165 62.4905 30.821C61.8314 30.5199 61.3087 30.0767 60.9223 29.4915C60.5416 28.9062 60.3513 28.1847 60.3513 27.3267C60.3513 26.5881 60.4876 25.9773 60.7604 25.4943C61.0331 25.0114 61.4053 24.625 61.8768 24.3352C62.3484 24.0455 62.8797 23.8267 63.4706 23.679C64.0672 23.5256 64.6837 23.4148 65.32 23.3466C66.0871 23.267 66.7092 23.196 67.1865 23.1335C67.6638 23.0653 68.0104 22.9631 68.2263 22.8267C68.4479 22.6847 68.5587 22.4659 68.5587 22.1705V22.1193C68.5587 21.4773 68.3683 20.9801 67.9876 20.6278C67.607 20.2756 67.0587 20.0994 66.3428 20.0994C65.5871 20.0994 64.9876 20.2642 64.5445 20.5938C64.107 20.9233 63.8115 21.3125 63.6581 21.7614L60.7774 21.3523C61.0047 20.5568 61.3797 19.892 61.9024 19.358C62.4251 18.8182 63.0643 18.4148 63.82 18.1477C64.5757 17.875 65.4109 17.7386 66.3257 17.7386C66.9564 17.7386 67.5842 17.8125 68.2092 17.9602C68.8342 18.108 69.4053 18.3523 69.9223 18.6932C70.4393 19.0284 70.8541 19.4858 71.1666 20.0653C71.4848 20.6449 71.6439 21.3693 71.6439 22.2386V31H68.678V29.2017H68.5757C68.3882 29.5653 68.124 29.9062 67.7831 30.2244C67.4479 30.5369 67.0246 30.7898 66.5132 30.983C66.0075 31.1705 65.4138 31.2642 64.732 31.2642ZM65.5331 28.9972C66.1524 28.9972 66.6893 28.875 67.1439 28.6307C67.5984 28.3807 67.9479 28.0511 68.1922 27.642C68.4422 27.233 68.5672 26.7869 68.5672 26.304V24.7614C68.4706 24.8409 68.3058 24.9148 68.0729 24.983C67.8456 25.0511 67.5899 25.1108 67.3058 25.1619C67.0217 25.2131 66.7405 25.2585 66.4621 25.2983C66.1837 25.3381 65.9422 25.3722 65.7376 25.4006C65.2774 25.4631 64.8655 25.5653 64.5018 25.7074C64.1382 25.8494 63.8513 26.0483 63.6411 26.304C63.4308 26.554 63.3257 26.8778 63.3257 27.2756C63.3257 27.8438 63.5331 28.2727 63.9479 28.5625C64.3626 28.8523 64.8911 28.9972 65.5331 28.9972ZM79.2564 31.2557C77.9496 31.2557 76.8274 30.9688 75.8899 30.3949C74.9581 29.821 74.2393 29.0284 73.7337 28.017C73.2337 27 72.9837 25.8295 72.9837 24.5057C72.9837 23.1761 73.2393 22.0028 73.7507 20.9858C74.2621 19.9631 74.9837 19.1676 75.9155 18.5994C76.853 18.0256 77.9609 17.7386 79.2393 17.7386C80.3018 17.7386 81.2422 17.9347 82.0604 18.3267C82.8842 18.7131 83.5405 19.2614 84.0291 19.9716C84.5178 20.6761 84.7962 21.5 84.8643 22.4432H81.9155C81.7962 21.8125 81.5121 21.2869 81.0632 20.8665C80.62 20.4403 80.0263 20.2273 79.282 20.2273C78.6513 20.2273 78.0973 20.3977 77.62 20.7386C77.1428 21.0739 76.7706 21.5568 76.5036 22.1875C76.2422 22.8182 76.1115 23.5739 76.1115 24.4545C76.1115 25.3466 76.2422 26.1136 76.5036 26.7557C76.7649 27.392 77.1314 27.8835 77.603 28.2301C78.0803 28.571 78.6399 28.7415 79.282 28.7415C79.7365 28.7415 80.1428 28.6562 80.5007 28.4858C80.8643 28.3097 81.1683 28.0568 81.4126 27.7273C81.657 27.3977 81.8246 26.9972 81.9155 26.5256H84.8643C84.7905 27.4517 84.5178 28.2727 84.0462 28.9886C83.5746 29.6989 82.9325 30.2557 82.12 30.6591C81.3075 31.0568 80.353 31.2557 79.2564 31.2557ZM92.7347 17.9091V20.2955H85.2091V17.9091H92.7347ZM87.067 14.7727H90.1523V27.0625C90.1523 27.4773 90.2148 27.7955 90.3398 28.017C90.4705 28.233 90.6409 28.3807 90.8511 28.4602C91.0614 28.5398 91.2943 28.5795 91.55 28.5795C91.7432 28.5795 91.9193 28.5653 92.0784 28.5369C92.2432 28.5085 92.3682 28.483 92.4534 28.4602L92.9733 30.8722C92.8085 30.929 92.5727 30.9915 92.2659 31.0597C91.9648 31.1278 91.5955 31.1676 91.158 31.179C90.3852 31.2017 89.6892 31.0852 89.0699 30.8295C88.4506 30.5682 87.9591 30.1648 87.5955 29.6193C87.2375 29.0739 87.0614 28.392 87.067 27.5739V14.7727ZM99.0044 13.5455H102.874L108.056 26.1932H108.26L113.442 13.5455H117.311V31H114.277V19.0085H114.115L109.291 30.9489H107.024L102.2 18.983H102.038V31H99.0044V13.5455ZM125.213 31.2557C123.901 31.2557 122.767 30.983 121.813 30.4375C120.864 29.8864 120.134 29.108 119.623 28.1023C119.111 27.0909 118.856 25.9006 118.856 24.5312C118.856 23.1847 119.111 22.0028 119.623 20.9858C120.14 19.9631 120.861 19.1676 121.787 18.5994C122.713 18.0256 123.802 17.7386 125.052 17.7386C125.858 17.7386 126.62 17.8693 127.336 18.1307C128.057 18.3864 128.694 18.7841 129.245 19.3239C129.802 19.8636 130.239 20.5511 130.557 21.3864C130.875 22.2159 131.035 23.2045 131.035 24.3523V25.2983H120.304V23.2188H128.077C128.071 22.6278 127.944 22.1023 127.694 21.642C127.444 21.1761 127.094 20.8097 126.645 20.5426C126.202 20.2756 125.685 20.142 125.094 20.142C124.463 20.142 123.91 20.2955 123.432 20.6023C122.955 20.9034 122.583 21.3011 122.316 21.7955C122.054 22.2841 121.921 22.821 121.915 23.4062V25.2216C121.915 25.983 122.054 26.6364 122.333 27.1818C122.611 27.7216 123 28.1364 123.5 28.4261C124 28.7102 124.586 28.8523 125.256 28.8523C125.705 28.8523 126.111 28.7898 126.475 28.6648C126.838 28.5341 127.154 28.3438 127.421 28.0938C127.688 27.8438 127.89 27.5341 128.026 27.1648L130.907 27.4886C130.725 28.25 130.378 28.9148 129.867 29.483C129.361 30.0455 128.713 30.483 127.924 30.7955C127.134 31.1023 126.231 31.2557 125.213 31.2557Z" fill="black"/>
</svg>
