<svg width="176" height="13" viewBox="0 0 176 13" fill="none" xmlns="http://www.w3.org/2000/svg">
<g id="dxresume">
<path fill-rule="evenodd" clip-rule="evenodd" d="M4.60023 3.33316C2.87085 3.63959 1.44797 5.21915 1.44797 7.08462C1.44797 8.86556 2.79005 10.0897 4.56112 10.2295C6.23658 10.3617 8.21902 9.47677 9.35174 7.05231C8.76743 5.47671 7.98967 4.49527 7.19273 3.93409C6.3523 3.34229 5.44402 3.18365 4.60023 3.33316ZM10.2107 5.36867C9.60254 4.15959 8.84681 3.26926 7.99968 2.67274C6.83783 1.8546 5.55153 1.62396 4.3591 1.83525C2.01606 2.2504 0 4.3927 0 7.08462C0 9.86106 2.13305 11.5613 4.45251 11.7443C6.42828 11.9002 8.60519 10.9932 10.0539 8.79469C10.5697 9.76277 11.3167 10.6665 12.3085 11.1785C13.0756 11.5744 13.9665 11.7216 14.9486 11.4943C15.9187 11.2698 16.9376 10.6899 18 9.70451L17.0409 8.56637C16.1052 9.4343 15.3014 9.85703 14.6367 10.0109C13.9839 10.1619 13.4278 10.0632 12.9478 9.81542C12.0228 9.33797 11.3067 8.25956 10.914 7.12754C11.7943 5.20566 12.8403 4.76288 13.6276 4.76035C14.5548 4.75737 15.3956 5.3529 15.7105 5.79336L16.8689 4.88188C16.315 4.10704 15.0635 3.23661 13.6232 3.24123C12.4055 3.24514 11.1921 3.86599 10.2107 5.36867Z" fill="white"/>
<path d="M36.2401 11.9318C35.5582 11.9318 34.9563 11.7596 34.4343 11.4151C33.9123 11.0671 33.5039 10.5771 33.2092 9.94496C32.9144 9.3093 32.767 8.55824 32.767 7.69176C32.767 6.83239 32.9144 6.08665 33.2092 5.45455C33.5039 4.82244 33.9141 4.33416 34.4396 3.9897C34.9652 3.64524 35.5724 3.47301 36.2614 3.47301C36.794 3.47301 37.2148 3.56179 37.5238 3.73935C37.8363 3.91335 38.0742 4.11222 38.2376 4.33594C38.4045 4.55611 38.5341 4.73722 38.6264 4.87926H38.733V0.852273H39.9901V11.7614H38.7756V10.5043H38.6264C38.5341 10.6534 38.4027 10.8416 38.2322 11.0689C38.0618 11.2926 37.8185 11.4933 37.5025 11.6708C37.1864 11.8448 36.7656 11.9318 36.2401 11.9318ZM36.4105 10.8026C36.9148 10.8026 37.3409 10.6712 37.6889 10.4084C38.0369 10.142 38.3015 9.7745 38.4826 9.30575C38.6637 8.83345 38.7543 8.28835 38.7543 7.67045C38.7543 7.05966 38.6655 6.52521 38.4879 6.06712C38.3104 5.60547 38.0476 5.2468 37.6996 4.99112C37.3516 4.73189 36.9219 4.60227 36.4105 4.60227C35.8778 4.60227 35.4339 4.73899 35.0788 5.01243C34.7273 5.28232 34.4627 5.64986 34.2852 6.11506C34.1112 6.5767 34.0241 7.09517 34.0241 7.67045C34.0241 8.25284 34.1129 8.78196 34.2905 9.25781C34.4716 9.73011 34.7379 10.1065 35.0895 10.3871C35.4446 10.6641 35.8849 10.8026 36.4105 10.8026Z" fill="white"/>
<path d="M45.0408 11.9318C44.3022 11.9318 43.6541 11.756 43.0966 11.4045C42.5426 11.0529 42.1094 10.5611 41.7969 9.92898C41.4879 9.29688 41.3335 8.55824 41.3335 7.71307C41.3335 6.8608 41.4879 6.11683 41.7969 5.48118C42.1094 4.84553 42.5426 4.35192 43.0966 4.00036C43.6541 3.64879 44.3022 3.47301 45.0408 3.47301C45.7795 3.47301 46.4258 3.64879 46.9798 4.00036C47.5373 4.35192 47.9705 4.84553 48.2795 5.48118C48.592 6.11683 48.7482 6.8608 48.7482 7.71307C48.7482 8.55824 48.592 9.29688 48.2795 9.92898C47.9705 10.5611 47.5373 11.0529 46.9798 11.4045C46.4258 11.756 45.7795 11.9318 45.0408 11.9318ZM45.0408 10.8026C45.6019 10.8026 46.0636 10.6587 46.4258 10.3711C46.788 10.0835 47.0561 9.70526 47.2301 9.23651C47.4041 8.76776 47.4911 8.25994 47.4911 7.71307C47.4911 7.16619 47.4041 6.65661 47.2301 6.1843C47.0561 5.712 46.788 5.33026 46.4258 5.03906C46.0636 4.74787 45.6019 4.60227 45.0408 4.60227C44.4798 4.60227 44.0181 4.74787 43.6559 5.03906C43.2937 5.33026 43.0256 5.712 42.8516 6.1843C42.6776 6.65661 42.5906 7.16619 42.5906 7.71307C42.5906 8.25994 42.6776 8.76776 42.8516 9.23651C43.0256 9.70526 43.2937 10.0835 43.6559 10.3711C44.0181 10.6587 44.4798 10.8026 45.0408 10.8026Z" fill="white"/>
<path d="M51.4925 11.7614L48.9996 3.57955H50.3207L52.0891 9.84375H52.1744L53.9215 3.57955H55.2639L56.9897 9.82244H57.0749L58.8434 3.57955H60.1644L57.6715 11.7614H56.4357L54.646 5.47585H54.5181L52.7283 11.7614H51.4925Z" fill="white"/>
<path d="M62.3335 6.83949V11.7614H61.0764V3.57955H62.2908V4.85795H62.3974C62.5891 4.44247 62.8803 4.10867 63.271 3.85653C63.6616 3.60085 64.1658 3.47301 64.7837 3.47301C65.3377 3.47301 65.8224 3.58665 66.2379 3.81392C66.6534 4.03764 66.9766 4.37855 67.2074 4.83665C67.4382 5.29119 67.5536 5.86648 67.5536 6.5625V11.7614H66.2965V6.64773C66.2965 6.00497 66.1296 5.50426 65.7958 5.1456C65.462 4.78338 65.0039 4.60227 64.4215 4.60227C64.0202 4.60227 63.6616 4.68928 63.3455 4.86328C63.033 5.03729 62.7862 5.29119 62.6051 5.625C62.424 5.95881 62.3335 6.36364 62.3335 6.83949Z" fill="white"/>
<path d="M70.3579 0.852273V11.7614H69.1008V0.852273H70.3579Z" fill="white"/>
<path d="M75.2342 11.9318C74.4956 11.9318 73.8475 11.756 73.2899 11.4045C72.736 11.0529 72.3027 10.5611 71.9902 9.92898C71.6813 9.29688 71.5268 8.55824 71.5268 7.71307C71.5268 6.8608 71.6813 6.11683 71.9902 5.48118C72.3027 4.84553 72.736 4.35192 73.2899 4.00036C73.8475 3.64879 74.4956 3.47301 75.2342 3.47301C75.9728 3.47301 76.6191 3.64879 77.1731 4.00036C77.7306 4.35192 78.1639 4.84553 78.4728 5.48118C78.7853 6.11683 78.9416 6.8608 78.9416 7.71307C78.9416 8.55824 78.7853 9.29688 78.4728 9.92898C78.1639 10.5611 77.7306 11.0529 77.1731 11.4045C76.6191 11.756 75.9728 11.9318 75.2342 11.9318ZM75.2342 10.8026C75.7953 10.8026 76.2569 10.6587 76.6191 10.3711C76.9814 10.0835 77.2495 9.70526 77.4235 9.23651C77.5975 8.76776 77.6845 8.25994 77.6845 7.71307C77.6845 7.16619 77.5975 6.65661 77.4235 6.1843C77.2495 5.712 76.9814 5.33026 76.6191 5.03906C76.2569 4.74787 75.7953 4.60227 75.2342 4.60227C74.6731 4.60227 74.2115 4.74787 73.8493 5.03906C73.487 5.33026 73.2189 5.712 73.0449 6.1843C72.8709 6.65661 72.7839 7.16619 72.7839 7.71307C72.7839 8.25994 72.8709 8.76776 73.0449 9.23651C73.2189 9.70526 73.487 10.0835 73.8493 10.3711C74.2115 10.6587 74.6731 10.8026 75.2342 10.8026Z" fill="white"/>
<path d="M82.5182 11.9531C81.9997 11.9531 81.5292 11.8555 81.1066 11.6602C80.684 11.4613 80.3485 11.1754 80.0999 10.8026C79.8513 10.4261 79.727 9.97159 79.727 9.43892C79.727 8.97017 79.8193 8.5902 80.004 8.29901C80.1887 8.00426 80.4355 7.77344 80.7444 7.60653C81.0534 7.43963 81.3943 7.31534 81.7671 7.23366C82.1436 7.14844 82.5218 7.08097 82.9017 7.03125C83.3989 6.96733 83.8019 6.91939 84.1109 6.88743C84.4234 6.85192 84.6507 6.79332 84.7927 6.71165C84.9383 6.62997 85.0111 6.48793 85.0111 6.28551V6.2429C85.0111 5.71733 84.8673 5.30895 84.5796 5.01776C84.2955 4.72656 83.8641 4.58097 83.2852 4.58097C82.6851 4.58097 82.2146 4.71236 81.8737 4.97514C81.5328 5.23793 81.2931 5.51847 81.1546 5.81676L79.9614 5.39062C80.1744 4.89347 80.4585 4.50639 80.8137 4.2294C81.1723 3.94886 81.5629 3.75355 81.9855 3.64347C82.4117 3.52983 82.8307 3.47301 83.2426 3.47301C83.5054 3.47301 83.8073 3.50497 84.1482 3.56889C84.4926 3.62926 84.8247 3.75533 85.1443 3.94709C85.4674 4.13885 85.7355 4.42827 85.9486 4.81534C86.1617 5.20241 86.2682 5.72088 86.2682 6.37074V11.7614H85.0111V10.6534H84.9472C84.8619 10.831 84.7199 11.021 84.521 11.2234C84.3222 11.4258 84.0576 11.598 83.7274 11.7401C83.3971 11.8821 82.994 11.9531 82.5182 11.9531ZM82.71 10.8239C83.2071 10.8239 83.6262 10.7262 83.9671 10.5309C84.3115 10.3356 84.5708 10.0835 84.7448 9.7745C84.9223 9.46555 85.0111 9.14063 85.0111 8.79972V7.64915C84.9578 7.71307 84.8406 7.77166 84.6595 7.82493C84.482 7.87465 84.276 7.91903 84.0416 7.9581C83.8108 7.99361 83.5853 8.02557 83.3651 8.05398C83.1485 8.07884 82.9727 8.10014 82.8378 8.1179C82.5111 8.16051 82.2057 8.22976 81.9216 8.32564C81.6411 8.41797 81.4138 8.55824 81.2398 8.74645C81.0693 8.93111 80.9841 9.18324 80.9841 9.50284C80.9841 9.93963 81.1457 10.2699 81.4688 10.4936C81.7955 10.7138 82.2093 10.8239 82.71 10.8239Z" fill="white"/>
<path d="M90.9022 11.9318C90.2203 11.9318 89.6184 11.7596 89.0964 11.4151C88.5744 11.0671 88.166 10.5771 87.8713 9.94496C87.5765 9.3093 87.4292 8.55824 87.4292 7.69176C87.4292 6.83239 87.5765 6.08665 87.8713 5.45455C88.166 4.82244 88.5762 4.33416 89.1017 3.9897C89.6273 3.64524 90.2345 3.47301 90.9235 3.47301C91.4561 3.47301 91.877 3.56179 92.1859 3.73935C92.4984 3.91335 92.7363 4.11222 92.8997 4.33594C93.0666 4.55611 93.1962 4.73722 93.2885 4.87926H93.3951V0.852273H94.6522V11.7614H93.4377V10.5043H93.2885C93.1962 10.6534 93.0648 10.8416 92.8944 11.0689C92.7239 11.2926 92.4806 11.4933 92.1646 11.6708C91.8485 11.8448 91.4277 11.9318 90.9022 11.9318ZM91.0726 10.8026C91.5769 10.8026 92.003 10.6712 92.351 10.4084C92.699 10.142 92.9636 9.7745 93.1447 9.30575C93.3258 8.83345 93.4164 8.28835 93.4164 7.67045C93.4164 7.05966 93.3276 6.52521 93.15 6.06712C92.9725 5.60547 92.7097 5.2468 92.3617 4.99112C92.0137 4.73189 91.584 4.60227 91.0726 4.60227C90.54 4.60227 90.0961 4.73899 89.7409 5.01243C89.3894 5.28232 89.1248 5.64986 88.9473 6.11506C88.7733 6.5767 88.6863 7.09517 88.6863 7.67045C88.6863 8.25284 88.775 8.78196 88.9526 9.25781C89.1337 9.73011 89.4 10.1065 89.7516 10.3871C90.1067 10.6641 90.5471 10.8026 91.0726 10.8026Z" fill="white"/>
<path d="M100.018 11.7614V0.852273H103.704C104.557 0.852273 105.256 0.997869 105.803 1.28906C106.35 1.5767 106.755 1.97266 107.018 2.47692C107.28 2.98118 107.412 3.55469 107.412 4.19744C107.412 4.8402 107.28 5.41016 107.018 5.90732C106.755 6.40447 106.352 6.7951 105.808 7.07919C105.265 7.35973 104.571 7.5 103.726 7.5H100.743V6.30682H103.683C104.265 6.30682 104.734 6.22159 105.089 6.05114C105.448 5.88068 105.707 5.6392 105.867 5.3267C106.03 5.01065 106.112 4.63423 106.112 4.19744C106.112 3.76065 106.03 3.37891 105.867 3.0522C105.704 2.7255 105.443 2.47337 105.084 2.29581C104.725 2.1147 104.251 2.02415 103.662 2.02415H101.339V11.7614H100.018ZM105.153 6.8608L107.838 11.7614H106.304L103.662 6.8608H105.153Z" fill="white"/>
<path d="M112.035 11.9318C111.247 11.9318 110.567 11.7578 109.995 11.4098C109.427 11.0582 108.988 10.5682 108.679 9.93963C108.374 9.30753 108.221 8.57244 108.221 7.73438C108.221 6.89631 108.374 6.15767 108.679 5.51847C108.988 4.87571 109.418 4.375 109.968 4.01634C110.522 3.65412 111.169 3.47301 111.907 3.47301C112.333 3.47301 112.754 3.54403 113.17 3.68608C113.585 3.82813 113.963 4.05895 114.304 4.37855C114.645 4.6946 114.917 5.11364 115.119 5.63565C115.322 6.15767 115.423 6.80043 115.423 7.56392V8.09659H109.116V7.00994H114.144C114.144 6.5483 114.052 6.13636 113.867 5.77415C113.686 5.41193 113.427 5.12607 113.09 4.91655C112.756 4.70703 112.362 4.60227 111.907 4.60227C111.407 4.60227 110.973 4.72656 110.608 4.97514C110.245 5.22017 109.967 5.53977 109.771 5.93395C109.576 6.32813 109.478 6.75071 109.478 7.2017V7.92614C109.478 8.54403 109.585 9.06783 109.798 9.49751C110.014 9.92365 110.315 10.2486 110.698 10.4723C111.082 10.6925 111.527 10.8026 112.035 10.8026C112.365 10.8026 112.664 10.7564 112.93 10.6641C113.2 10.5682 113.432 10.4261 113.628 10.2379C113.823 10.0462 113.974 9.80824 114.081 9.52415L115.295 9.86506C115.167 10.277 114.952 10.6392 114.65 10.9517C114.349 11.2607 113.976 11.5021 113.532 11.6761C113.088 11.8466 112.589 11.9318 112.035 11.9318ZM111.268 2.47159L112.568 0H114.038L112.376 2.47159H111.268Z" fill="white"/>
<path d="M122.381 5.41193L121.251 5.73153C121.18 5.54332 121.076 5.36044 120.937 5.18288C120.802 5.00178 120.617 4.85263 120.383 4.73544C120.149 4.61825 119.849 4.55966 119.483 4.55966C118.982 4.55966 118.565 4.67507 118.231 4.9059C117.901 5.13317 117.736 5.42259 117.736 5.77415C117.736 6.08665 117.849 6.33345 118.077 6.51456C118.304 6.69567 118.659 6.84659 119.142 6.96733L120.356 7.26563C121.088 7.44318 121.633 7.71484 121.992 8.08061C122.35 8.44283 122.53 8.9098 122.53 9.48153C122.53 9.95028 122.395 10.3693 122.125 10.7386C121.859 11.108 121.486 11.3991 121.006 11.6122C120.527 11.8253 119.969 11.9318 119.334 11.9318C118.499 11.9318 117.809 11.7507 117.262 11.3885C116.715 11.0263 116.369 10.4972 116.223 9.80114L117.416 9.50284C117.53 9.94318 117.745 10.2734 118.061 10.4936C118.38 10.7138 118.797 10.8239 119.312 10.8239C119.898 10.8239 120.364 10.6996 120.708 10.451C121.056 10.1989 121.23 9.89702 121.23 9.54545C121.23 9.26136 121.131 9.02344 120.932 8.83168C120.733 8.63636 120.427 8.49077 120.016 8.39489L118.652 8.07528C117.903 7.89773 117.352 7.62251 117.001 7.24965C116.653 6.87322 116.479 6.4027 116.479 5.83807C116.479 5.37642 116.608 4.96804 116.867 4.61293C117.13 4.25781 117.487 3.97905 117.938 3.77663C118.393 3.57422 118.908 3.47301 119.483 3.47301C120.293 3.47301 120.928 3.65057 121.39 4.00568C121.855 4.3608 122.185 4.82955 122.381 5.41193Z" fill="white"/>
<path d="M128.828 8.41619V3.57955H130.085V11.7614H128.828V10.3764H128.743C128.551 10.7919 128.253 11.1452 127.848 11.4364C127.443 11.7241 126.932 11.8679 126.314 11.8679C125.803 11.8679 125.348 11.756 124.95 11.5323C124.553 11.305 124.24 10.9641 124.013 10.5096C123.786 10.0515 123.672 9.47443 123.672 8.77841V3.57955H124.929V8.69318C124.929 9.28977 125.096 9.76563 125.43 10.1207C125.767 10.4759 126.197 10.6534 126.719 10.6534C127.031 10.6534 127.349 10.5735 127.672 10.4137C127.999 10.2539 128.273 10.0089 128.493 9.67862C128.716 9.34837 128.828 8.92756 128.828 8.41619Z" fill="white"/>
<path d="M131.638 11.7614V3.57955H132.852V4.85795H132.959C133.129 4.42117 133.405 4.08203 133.785 3.84055C134.165 3.59553 134.621 3.47301 135.154 3.47301C135.693 3.47301 136.142 3.59553 136.501 3.84055C136.863 4.08203 137.146 4.42117 137.348 4.85795H137.433C137.643 4.43537 137.957 4.09979 138.376 3.85121C138.795 3.59908 139.298 3.47301 139.884 3.47301C140.615 3.47301 141.214 3.70206 141.679 4.16016C142.144 4.6147 142.377 5.32315 142.377 6.28551V11.7614H141.119V6.28551C141.119 5.68182 140.954 5.25036 140.624 4.99112C140.294 4.73189 139.905 4.60227 139.457 4.60227C138.882 4.60227 138.437 4.77628 138.12 5.12429C137.804 5.46875 137.646 5.90554 137.646 6.43466V11.7614H136.368V6.15767C136.368 5.69247 136.217 5.31783 135.915 5.03374C135.613 4.74609 135.225 4.60227 134.749 4.60227C134.422 4.60227 134.117 4.68928 133.832 4.86328C133.552 5.03729 133.325 5.27876 133.151 5.58771C132.98 5.89311 132.895 6.24645 132.895 6.64773V11.7614H131.638Z" fill="white"/>
<path d="M147.355 11.9318C146.567 11.9318 145.887 11.7578 145.315 11.4098C144.747 11.0582 144.309 10.5682 144 9.93963C143.694 9.30753 143.541 8.57244 143.541 7.73438C143.541 6.89631 143.694 6.15767 144 5.51847C144.309 4.87571 144.738 4.375 145.289 4.01634C145.843 3.65412 146.489 3.47301 147.228 3.47301C147.654 3.47301 148.074 3.54403 148.49 3.68608C148.905 3.82813 149.284 4.05895 149.625 4.37855C149.965 4.6946 150.237 5.11364 150.44 5.63565C150.642 6.15767 150.743 6.80043 150.743 7.56392V8.09659H144.436V7.00994H149.465C149.465 6.5483 149.372 6.13636 149.188 5.77415C149.007 5.41193 148.747 5.12607 148.41 4.91655C148.076 4.70703 147.682 4.60227 147.228 4.60227C146.727 4.60227 146.294 4.72656 145.928 4.97514C145.566 5.22017 145.287 5.53977 145.092 5.93395C144.896 6.32813 144.799 6.75071 144.799 7.2017V7.92614C144.799 8.54403 144.905 9.06783 145.118 9.49751C145.335 9.92365 145.635 10.2486 146.018 10.4723C146.402 10.6925 146.848 10.8026 147.355 10.8026C147.686 10.8026 147.984 10.7564 148.25 10.6641C148.52 10.5682 148.753 10.4261 148.948 10.2379C149.143 10.0462 149.294 9.80824 149.401 9.52415L150.615 9.86506C150.487 10.277 150.273 10.6392 149.971 10.9517C149.669 11.2607 149.296 11.5021 148.852 11.6761C148.408 11.8466 147.909 11.9318 147.355 11.9318ZM146.588 2.47159L147.888 0H149.358L147.696 2.47159H146.588Z" fill="white"/>
<path fill-rule="evenodd" clip-rule="evenodd" d="M175.018 7.47583L171.402 11.4533C171.18 11.6974 170.82 11.6974 170.598 11.4533L166.982 7.47583C166.761 7.23175 166.761 6.83602 166.982 6.59195C167.204 6.34787 167.564 6.34787 167.786 6.59195L170.432 9.50248V0.761364L171.568 0.761364V9.50248L174.214 6.59195C174.436 6.34787 174.796 6.34787 175.018 6.59195C175.24 6.83602 175.24 7.23175 175.018 7.47583Z" fill="white"/>
<path fill-rule="evenodd" clip-rule="evenodd" d="M176 12.7614H166V11.5114H176V12.7614Z" fill="white"/>
</g>
</svg>
