<svg width="56" height="64" viewBox="0 0 56 64" fill="none" xmlns="http://www.w3.org/2000/svg">
<rect x="9" y="2" width="40" height="40" rx="6" stroke="#b8e5ff" stroke-width="4"/>
<path d="M1.16033 61V52.2727H6.39329V53.2102H2.21715V56.1591H6.00124V57.0966H2.21715V61H1.16033ZM9.99308 61.1534C9.5783 61.1534 9.20188 61.0753 8.86381 60.919C8.52575 60.7599 8.25728 60.5312 8.05842 60.233C7.85955 59.9318 7.76012 59.5682 7.76012 59.142C7.76012 58.767 7.83398 58.4631 7.98171 58.2301C8.12944 57.9943 8.32688 57.8097 8.57404 57.6761C8.8212 57.5426 9.09393 57.4432 9.39222 57.3778C9.69336 57.3097 9.99592 57.2557 10.2999 57.2159C10.6976 57.1648 11.0201 57.1264 11.2672 57.1009C11.5172 57.0724 11.699 57.0256 11.8127 56.9602C11.9292 56.8949 11.9874 56.7812 11.9874 56.6193V56.5852C11.9874 56.1648 11.8723 55.8381 11.6422 55.6051C11.415 55.3722 11.0698 55.2557 10.6067 55.2557C10.1266 55.2557 9.75018 55.3608 9.47745 55.571C9.20472 55.7812 9.01296 56.0057 8.90217 56.2443L7.94762 55.9034C8.11808 55.5057 8.34535 55.196 8.62944 54.9744C8.91637 54.75 9.22887 54.5937 9.56694 54.5057C9.90785 54.4148 10.2431 54.3693 10.5726 54.3693C10.7828 54.3693 11.0243 54.3949 11.2971 54.446C11.5726 54.4943 11.8382 54.5952 12.0939 54.7486C12.3525 54.902 12.5669 55.1335 12.7374 55.4432C12.9078 55.7528 12.9931 56.1676 12.9931 56.6875V61H11.9874V60.1136H11.9363C11.8681 60.2557 11.7544 60.4077 11.5953 60.5696C11.4363 60.7315 11.2246 60.8693 10.9604 60.983C10.6962 61.0966 10.3738 61.1534 9.99308 61.1534ZM10.1465 60.25C10.5442 60.25 10.8794 60.1719 11.1522 60.0156C11.4277 59.8594 11.6351 59.6577 11.7743 59.4105C11.9164 59.1634 11.9874 58.9034 11.9874 58.6307V57.7102C11.9448 57.7614 11.851 57.8082 11.7061 57.8509C11.5641 57.8906 11.3993 57.9261 11.2118 57.9574C11.0272 57.9858 10.8468 58.0114 10.6706 58.0341C10.4973 58.054 10.3567 58.071 10.2488 58.0852C9.98739 58.1193 9.74308 58.1747 9.5158 58.2514C9.29137 58.3253 9.10955 58.4375 8.97035 58.5881C8.83398 58.7358 8.7658 58.9375 8.7658 59.1932C8.7658 59.5426 8.89506 59.8068 9.15359 59.9858C9.41495 60.1619 9.74592 60.25 10.1465 60.25ZM17.4877 61.1364C16.8741 61.1364 16.3457 60.9915 15.9025 60.7017C15.4593 60.4119 15.1184 60.0128 14.8798 59.5043C14.6412 58.9957 14.5218 58.4148 14.5218 57.7614C14.5218 57.0966 14.644 56.5099 14.8883 56.0014C15.1355 55.4901 15.4792 55.0909 15.9196 54.804C16.3627 54.5142 16.8798 54.3693 17.4707 54.3693C17.9309 54.3693 18.3457 54.4545 18.715 54.625C19.0843 54.7955 19.3869 55.0341 19.6227 55.3409C19.8585 55.6477 20.0048 56.0057 20.0616 56.4148H19.0559C18.9792 56.1165 18.8088 55.8523 18.5446 55.6222C18.2832 55.3892 17.9309 55.2727 17.4877 55.2727C17.0957 55.2727 16.752 55.375 16.4565 55.5795C16.1639 55.7812 15.9352 56.0668 15.7704 56.4361C15.6085 56.8026 15.5275 57.233 15.5275 57.7273C15.5275 58.233 15.6071 58.6733 15.7662 59.0483C15.9281 59.4233 16.1554 59.7145 16.448 59.9219C16.7434 60.1293 17.09 60.233 17.4877 60.233C17.7491 60.233 17.9863 60.1875 18.1994 60.0966C18.4125 60.0057 18.5929 59.875 18.7406 59.7045C18.8883 59.5341 18.9934 59.3295 19.0559 59.0909H20.0616C20.0048 59.4773 19.8642 59.8253 19.6397 60.1349C19.4181 60.4418 19.1241 60.6861 18.7576 60.8679C18.394 61.0469 17.9707 61.1364 17.4877 61.1364ZM24.2761 61.1364C23.6454 61.1364 23.1014 60.9972 22.644 60.7188C22.1895 60.4375 21.8386 60.0455 21.5914 59.5426C21.3471 59.0369 21.225 58.4489 21.225 57.7784C21.225 57.108 21.3471 56.517 21.5914 56.0057C21.8386 55.4915 22.1824 55.0909 22.6227 54.804C23.0659 54.5142 23.5829 54.3693 24.1738 54.3693C24.5147 54.3693 24.8514 54.4261 25.1838 54.5398C25.5162 54.6534 25.8187 54.8381 26.0914 55.0938C26.3642 55.3466 26.5815 55.6818 26.7434 56.0994C26.9054 56.517 26.9863 57.0312 26.9863 57.642V58.0682H21.9409V57.1989H25.9636C25.9636 56.8295 25.8897 56.5 25.742 56.2102C25.5971 55.9205 25.3897 55.6918 25.1199 55.5241C24.8528 55.3565 24.5375 55.2727 24.1738 55.2727C23.7733 55.2727 23.4267 55.3722 23.1341 55.571C22.8443 55.767 22.6213 56.0227 22.465 56.3381C22.3088 56.6534 22.2306 56.9915 22.2306 57.3523V57.9318C22.2306 58.4261 22.3159 58.8452 22.4863 59.1889C22.6596 59.5298 22.8997 59.7898 23.2065 59.9688C23.5133 60.1449 23.8699 60.233 24.2761 60.233C24.5403 60.233 24.7789 60.196 24.992 60.1222C25.2079 60.0455 25.394 59.9318 25.5502 59.7812C25.7065 59.6278 25.8272 59.4375 25.9125 59.2102L26.8841 59.483C26.7818 59.8125 26.6099 60.1023 26.3684 60.3523C26.127 60.5994 25.8287 60.7926 25.4735 60.9318C25.1184 61.0682 24.7193 61.1364 24.2761 61.1364ZM28.6525 61V52.2727H29.6582V55.4943H29.7434C29.8173 55.3807 29.9196 55.2358 30.0502 55.0597C30.1838 54.8807 30.3741 54.7216 30.6213 54.5824C30.8713 54.4403 31.2093 54.3693 31.6355 54.3693C32.1866 54.3693 32.6724 54.5071 33.0929 54.7827C33.5133 55.0582 33.8414 55.4489 34.0772 55.9545C34.313 56.4602 34.4309 57.0568 34.4309 57.7443C34.4309 58.4375 34.313 59.0384 34.0772 59.5469C33.8414 60.0526 33.5147 60.4446 33.0971 60.723C32.6795 60.9986 32.198 61.1364 31.6525 61.1364C31.2321 61.1364 30.8954 61.0668 30.6426 60.9276C30.3897 60.7855 30.1951 60.625 30.0588 60.446C29.9224 60.2642 29.8173 60.1136 29.7434 59.9943H29.6241V61H28.6525ZM29.6412 57.7273C29.6412 58.2216 29.7136 58.6577 29.8585 59.0355C30.0034 59.4105 30.215 59.7045 30.4934 59.9176C30.7718 60.1278 31.1127 60.233 31.5162 60.233C31.9366 60.233 32.2875 60.1222 32.5687 59.9006C32.8528 59.6761 33.0659 59.375 33.2079 58.9972C33.3528 58.6165 33.4252 58.1932 33.4252 57.7273C33.4252 57.267 33.3542 56.8523 33.2122 56.483C33.073 56.1108 32.8613 55.8168 32.5772 55.6009C32.296 55.3821 31.9423 55.2727 31.5162 55.2727C31.1071 55.2727 30.7633 55.3764 30.4849 55.5838C30.2065 55.7884 29.9963 56.0753 29.8542 56.4446C29.7122 56.8111 29.6412 57.2386 29.6412 57.7273ZM38.6284 61.1364C38.0375 61.1364 37.519 60.9957 37.073 60.7145C36.6298 60.4332 36.2832 60.0398 36.0332 59.5341C35.786 59.0284 35.6625 58.4375 35.6625 57.7614C35.6625 57.0795 35.786 56.4844 36.0332 55.9759C36.2832 55.4673 36.6298 55.0724 37.073 54.7912C37.519 54.5099 38.0375 54.3693 38.6284 54.3693C39.2193 54.3693 39.7363 54.5099 40.1795 54.7912C40.6255 55.0724 40.9721 55.4673 41.2193 55.9759C41.4693 56.4844 41.5943 57.0795 41.5943 57.7614C41.5943 58.4375 41.4693 59.0284 41.2193 59.5341C40.9721 60.0398 40.6255 60.4332 40.1795 60.7145C39.7363 60.9957 39.2193 61.1364 38.6284 61.1364ZM38.6284 60.233C39.0772 60.233 39.4466 60.1179 39.7363 59.8878C40.0261 59.6577 40.2406 59.3551 40.3798 58.9801C40.519 58.6051 40.5886 58.1989 40.5886 57.7614C40.5886 57.3239 40.519 56.9162 40.3798 56.5384C40.2406 56.1605 40.0261 55.8551 39.7363 55.6222C39.4466 55.3892 39.0772 55.2727 38.6284 55.2727C38.1795 55.2727 37.8102 55.3892 37.5204 55.6222C37.2306 55.8551 37.0162 56.1605 36.877 56.5384C36.7377 56.9162 36.6681 57.3239 36.6681 57.7614C36.6681 58.1989 36.7377 58.6051 36.877 58.9801C37.0162 59.3551 37.2306 59.6577 37.5204 59.8878C37.8102 60.1179 38.1795 60.233 38.6284 60.233ZM45.7885 61.1364C45.1976 61.1364 44.6792 60.9957 44.2331 60.7145C43.79 60.4332 43.4434 60.0398 43.1934 59.5341C42.9462 59.0284 42.8226 58.4375 42.8226 57.7614C42.8226 57.0795 42.9462 56.4844 43.1934 55.9759C43.4434 55.4673 43.79 55.0724 44.2331 54.7912C44.6792 54.5099 45.1976 54.3693 45.7885 54.3693C46.3794 54.3693 46.8965 54.5099 47.3397 54.7912C47.7857 55.0724 48.1323 55.4673 48.3794 55.9759C48.6294 56.4844 48.7544 57.0795 48.7544 57.7614C48.7544 58.4375 48.6294 59.0284 48.3794 59.5341C48.1323 60.0398 47.7857 60.4332 47.3397 60.7145C46.8965 60.9957 46.3794 61.1364 45.7885 61.1364ZM45.7885 60.233C46.2374 60.233 46.6067 60.1179 46.8965 59.8878C47.1863 59.6577 47.4007 59.3551 47.54 58.9801C47.6792 58.6051 47.7488 58.1989 47.7488 57.7614C47.7488 57.3239 47.6792 56.9162 47.54 56.5384C47.4007 56.1605 47.1863 55.8551 46.8965 55.6222C46.6067 55.3892 46.2374 55.2727 45.7885 55.2727C45.3397 55.2727 44.9703 55.3892 44.6806 55.6222C44.3908 55.8551 44.1763 56.1605 44.0371 56.5384C43.8979 56.9162 43.8283 57.3239 43.8283 57.7614C43.8283 58.1989 43.8979 58.6051 44.0371 58.9801C44.1763 59.3551 44.3908 59.6577 44.6806 59.8878C44.9703 60.1179 45.3397 60.233 45.7885 60.233ZM51.2271 58.6136L51.21 57.3693H51.4146L54.2782 54.4545H55.5226L52.4714 57.5398H52.3862L51.2271 58.6136ZM50.2896 61V52.2727H51.2953V61H50.2896ZM54.4487 61L51.8919 57.7614L52.6078 57.0625L55.7271 61H54.4487Z" fill="#b8e5ff"/>
<path d="M25 42.5V26.5M40.5 12C30.5 12 28.5 12 25 19V26.5M25 26.5L39 26.5" stroke="#b8e5ff" stroke-width="4"/>
</svg>
