<svg xmlns="http://www.w3.org/2000/svg" xmlns:xlink="http://www.w3.org/1999/xlink" style="margin: auto; display: block;" width="200px" height="200px" viewBox="0 0 100 100" preserveAspectRatio="xMidYMid">
<defs>
<clipPath id="ldio-rdir95l3b4-cp" clipPathUnits="userSpaceOnUse">
<rect x="0" y="59" width="100" height="41"></rect>
</clipPath>
<pattern id="ldio-rdir95l3b4-pattern" patternUnits="userSpaceOnUse" x="0" y="0" width="100" height="100">
<rect x="0" y="0" width="100" height="100" fill="#7dd2ff"></rect><circle cx="50" cy="0" r="3" fill="#ffffff">
<animateTransform attributeName="transform" type="translate" values="0 105;0 -5" keyTimes="0;1" dur="7.142857142857142s" begin="-1.9999999999999998s" repeatCount="indefinite"></animateTransform>
</circle><circle cx="18" cy="0" r="4" fill="#ffffff">
<animateTransform attributeName="transform" type="translate" values="0 128;0 -28" keyTimes="0;1" dur="7.142857142857142s" begin="-1.9999999999999998s" repeatCount="indefinite"></animateTransform>
</circle><circle cx="96" cy="0" r="4" fill="#ffffff">
<animateTransform attributeName="transform" type="translate" values="0 113;0 -13" keyTimes="0;1" dur="7.142857142857142s" begin="-6.357142857142857s" repeatCount="indefinite"></animateTransform>
</circle><circle cx="85" cy="0" r="4" fill="#ffffff">
<animateTransform attributeName="transform" type="translate" values="0 140;0 -40" keyTimes="0;1" dur="7.142857142857142s" begin="-6.999999999999999s" repeatCount="indefinite"></animateTransform>
</circle><circle cx="15" cy="0" r="4" fill="#ffffff">
<animateTransform attributeName="transform" type="translate" values="0 140;0 -40" keyTimes="0;1" dur="7.142857142857142s" begin="-2.8571428571428568s" repeatCount="indefinite"></animateTransform>
</circle><circle cx="52" cy="0" r="3" fill="#ffffff">
<animateTransform attributeName="transform" type="translate" values="0 153;0 -53" keyTimes="0;1" dur="7.142857142857142s" begin="-3.714285714285714s" repeatCount="indefinite"></animateTransform>
</circle><circle cx="62" cy="0" r="3" fill="#ffffff">
<animateTransform attributeName="transform" type="translate" values="0 108;0 -8" keyTimes="0;1" dur="7.142857142857142s" begin="-3.3571428571428568s" repeatCount="indefinite"></animateTransform>
</circle><circle cx="56" cy="0" r="4" fill="#ffffff">
<animateTransform attributeName="transform" type="translate" values="0 131;0 -31" keyTimes="0;1" dur="7.142857142857142s" begin="-3.1428571428571423s" repeatCount="indefinite"></animateTransform>
</circle><circle cx="25" cy="0" r="2" fill="#ffffff">
<animateTransform attributeName="transform" type="translate" values="0 116;0 -16" keyTimes="0;1" dur="7.142857142857142s" begin="-1.9285714285714284s" repeatCount="indefinite"></animateTransform>
</circle><circle cx="14" cy="0" r="3" fill="#ffffff">
<animateTransform attributeName="transform" type="translate" values="0 126;0 -26" keyTimes="0;1" dur="7.142857142857142s" begin="-2.571428571428571s" repeatCount="indefinite"></animateTransform>
</circle><circle cx="69" cy="0" r="3" fill="#ffffff">
<animateTransform attributeName="transform" type="translate" values="0 149;0 -49" keyTimes="0;1" dur="7.142857142857142s" begin="-3.928571428571428s" repeatCount="indefinite"></animateTransform>
</circle><circle cx="64" cy="0" r="3" fill="#ffffff">
<animateTransform attributeName="transform" type="translate" values="0 112;0 -12" keyTimes="0;1" dur="7.142857142857142s" begin="-4.785714285714285s" repeatCount="indefinite"></animateTransform>
</circle><circle cx="33" cy="0" r="2" fill="#ffffff">
<animateTransform attributeName="transform" type="translate" values="0 124;0 -24" keyTimes="0;1" dur="7.142857142857142s" begin="-0.9999999999999999s" repeatCount="indefinite"></animateTransform>
</circle></pattern></defs>
<path fill="url(#ldio-rdir95l3b4-pattern)" clip-path="url(#ldio-rdir95l3b4-cp)" d="M59,37.3V18.9c3-0.8,5.1-3.6,5.1-6.8C64.1,8.2,61,5,57.1,5H42.9c-3.9,0-7.1,3.2-7.1,7.1c0,3.2,2.2,6,5.1,6.8v18.4c-11.9,3.8-20.6,15-20.6,28.2C20.4,81.8,33.7,95,50,95s29.6-13.2,29.6-29.6C79.6,52.2,70.9,41.1,59,37.3z"></path>
<path fill="none" stroke="#ffffff" stroke-width="5" d="M59,37.3V18.9c3-0.8,5.1-3.6,5.1-6.8C64.1,8.2,61,5,57.1,5H42.9c-3.9,0-7.1,3.2-7.1,7.1c0,3.2,2.2,6,5.1,6.8v18.4c-11.9,3.8-20.6,15-20.6,28.2C20.4,81.8,33.7,95,50,95s29.6-13.2,29.6-29.6C79.6,52.2,70.9,41.1,59,37.3z"></path>

</svg>