<svg width="44" height="64" viewBox="0 0 44 64" fill="none" xmlns="http://www.w3.org/2000/svg">
<rect x="2" y="2" width="40" height="40" rx="6" stroke="#FFFCB0" stroke-width="4"/>
<path d="M10.427 55C10.3333 54.7131 10.2097 54.456 10.0563 54.2287C9.90572 53.9986 9.72532 53.8026 9.51509 53.6406C9.30771 53.4787 9.07191 53.3551 8.80771 53.2699C8.5435 53.1847 8.25373 53.142 7.93839 53.142C7.42134 53.142 6.95117 53.2756 6.52788 53.5426C6.10458 53.8097 5.76793 54.2031 5.51793 54.723C5.26793 55.2429 5.14293 55.8807 5.14293 56.6364C5.14293 57.392 5.26935 58.0298 5.52219 58.5497C5.77504 59.0696 6.11737 59.4631 6.54918 59.7301C6.981 59.9972 7.4668 60.1307 8.00657 60.1307C8.50657 60.1307 8.94691 60.0241 9.32759 59.8111C9.71112 59.5952 10.0094 59.2912 10.2225 58.8991C10.4384 58.5043 10.5463 58.0398 10.5463 57.5057L10.8702 57.5739H8.24521V56.6364H11.5691V57.5739C11.5691 58.2926 11.4157 58.9176 11.1088 59.4489C10.8049 59.9801 10.3844 60.392 9.84748 60.6847C9.31339 60.9744 8.69975 61.1193 8.00657 61.1193C7.23384 61.1193 6.55487 60.9375 5.96964 60.5739C5.38725 60.2102 4.93271 59.6932 4.606 59.0227C4.28214 58.3523 4.12021 57.5568 4.12021 56.6364C4.12021 55.946 4.21254 55.3253 4.39719 54.7741C4.58469 54.2202 4.8489 53.7486 5.18981 53.3594C5.53072 52.9702 5.93413 52.6719 6.40004 52.4645C6.86594 52.2571 7.37873 52.1534 7.93839 52.1534C8.39862 52.1534 8.82759 52.223 9.22532 52.3622C9.62589 52.4986 9.98242 52.6932 10.2949 52.946C10.6103 53.196 10.873 53.4957 11.0833 53.8452C11.2935 54.1918 11.4384 54.5767 11.5179 55H10.427ZM13.6529 61V54.4545H14.6586V61H13.6529ZM14.1642 53.3636C13.9682 53.3636 13.7992 53.2969 13.6571 53.1634C13.5179 53.0298 13.4483 52.8693 13.4483 52.6818C13.4483 52.4943 13.5179 52.3338 13.6571 52.2003C13.7992 52.0668 13.9682 52 14.1642 52C14.3603 52 14.5279 52.0668 14.6671 52.2003C14.8091 52.3338 14.8801 52.4943 14.8801 52.6818C14.8801 52.8693 14.8091 53.0298 14.6671 53.1634C14.5279 53.2969 14.3603 53.3636 14.1642 53.3636ZM19.3471 54.4545V55.3068H15.9551V54.4545H19.3471ZM16.9437 52.8864H17.9494V59.125C17.9494 59.4091 17.9906 59.6222 18.073 59.7642C18.1582 59.9034 18.2662 59.9972 18.3968 60.0455C18.5304 60.0909 18.671 60.1136 18.8187 60.1136C18.9295 60.1136 19.0204 60.108 19.0914 60.0966C19.1625 60.0824 19.2193 60.071 19.2619 60.0625L19.4664 60.9659C19.3983 60.9915 19.3031 61.017 19.1809 61.0426C19.0588 61.071 18.9039 61.0852 18.7164 61.0852C18.4324 61.0852 18.1539 61.0241 17.8812 60.902C17.6113 60.7798 17.3869 60.5938 17.2079 60.3438C17.0318 60.0938 16.9437 59.7784 16.9437 59.3977V52.8864ZM22.0062 57.0625V61H21.0005V52.2727H22.0062V55.4773H22.0914C22.2449 55.1392 22.475 54.8707 22.7818 54.6719C23.0914 54.4702 23.5034 54.3693 24.0176 54.3693C24.4636 54.3693 24.8542 54.4588 25.1895 54.6378C25.5247 54.8139 25.7846 55.0852 25.9693 55.4517C26.1568 55.8153 26.2505 56.2784 26.2505 56.8409V61H25.2449V56.9091C25.2449 56.3892 25.1099 55.9872 24.84 55.7031C24.573 55.4162 24.2022 55.2727 23.7278 55.2727C23.3983 55.2727 23.1028 55.3423 22.8414 55.4815C22.5829 55.6207 22.3784 55.8239 22.2278 56.0909C22.0801 56.358 22.0062 56.6818 22.0062 57.0625ZM32.2154 58.3239V54.4545H33.2211V61H32.2154V59.892H32.1472C31.9938 60.2244 31.7551 60.5071 31.4313 60.7401C31.1074 60.9702 30.6983 61.0852 30.204 61.0852C29.7949 61.0852 29.4313 60.9957 29.1131 60.8168C28.7949 60.6349 28.5449 60.3622 28.3631 59.9986C28.1813 59.6321 28.0904 59.1705 28.0904 58.6136V54.4545H29.0961V58.5455C29.0961 59.0227 29.2296 59.4034 29.4966 59.6875C29.7665 59.9716 30.1103 60.1136 30.5279 60.1136C30.7779 60.1136 31.0321 60.0497 31.2907 59.9219C31.552 59.794 31.7708 59.598 31.9469 59.3338C32.1259 59.0696 32.2154 58.733 32.2154 58.3239ZM35.1994 61V52.2727H36.2051V55.4943H36.2903C36.3642 55.3807 36.4664 55.2358 36.5971 55.0597C36.7306 54.8807 36.921 54.7216 37.1681 54.5824C37.4181 54.4403 37.7562 54.3693 38.1824 54.3693C38.7335 54.3693 39.2193 54.5071 39.6397 54.7827C40.0602 55.0582 40.3883 55.4489 40.6241 55.9545C40.8599 56.4602 40.9778 57.0568 40.9778 57.7443C40.9778 58.4375 40.8599 59.0384 40.6241 59.5469C40.3883 60.0526 40.0616 60.4446 39.644 60.723C39.2264 60.9986 38.7449 61.1364 38.1994 61.1364C37.7789 61.1364 37.4423 61.0668 37.1895 60.9276C36.9366 60.7855 36.742 60.625 36.6056 60.446C36.4693 60.2642 36.3642 60.1136 36.2903 59.9943H36.171V61H35.1994ZM36.188 57.7273C36.188 58.2216 36.2605 58.6577 36.4054 59.0355C36.5502 59.4105 36.7619 59.7045 37.0403 59.9176C37.3187 60.1278 37.6596 60.233 38.063 60.233C38.4835 60.233 38.8343 60.1222 39.1156 59.9006C39.3997 59.6761 39.6127 59.375 39.7548 58.9972C39.8997 58.6165 39.9721 58.1932 39.9721 57.7273C39.9721 57.267 39.9011 56.8523 39.7591 56.483C39.6199 56.1108 39.4082 55.8168 39.1241 55.6009C38.8429 55.3821 38.4892 55.2727 38.063 55.2727C37.6539 55.2727 37.3102 55.3764 37.0318 55.5838C36.7534 55.7884 36.5431 56.0753 36.4011 56.4446C36.2591 56.8111 36.188 57.2386 36.188 57.7273Z" fill="#FFFCB0"/>
<path d="M26.9069 39.9728C27.475 38.9319 26.9296 37.4157 26.9296 34.9944C26.9296 33.2972 26.3613 32.211 25.702 31.6453C29.7487 31.1927 34 29.6539 34 22.7067C34 20.7153 33.2952 19.1086 32.1358 17.8414C32.3177 17.3888 32.9542 15.5332 31.9539 13.044C31.9539 13.044 30.4307 12.5462 26.9524 14.8996C25.4974 14.4923 23.9514 14.2886 22.4055 14.2886C20.8596 14.2886 19.3136 14.4923 17.8586 14.8996C14.3803 12.5688 12.8571 13.044 12.8571 13.044C11.8568 15.5332 12.4933 17.3888 12.6752 17.8414C11.5157 19.1086 10.811 20.738 10.811 22.7067C10.811 29.6313 15.0396 31.1927 19.0863 31.6453C18.5634 32.0978 18.086 32.8899 17.9268 34.0666C16.881 34.5418 14.2666 35.3112 12.6297 32.5731C12.2887 32.03 11.2657 30.6948 9.83341 30.7175C8.31021 30.7401 9.21958 31.5774 9.85614 31.9168C10.6291 32.3468 11.5157 33.9534 11.7204 34.4739C12.0841 35.4922 13.2663 37.4383 17.8359 36.6011C17.8359 38.1172 17.2445 38.9319 17.8586 39.9728C18.6903 41.3825 26.1817 41.3017 26.9069 39.9728Z" fill="#FFFCB0"/>
</svg>
