<svg width="48" height="64" viewBox="0 0 48 64" fill="none" xmlns="http://www.w3.org/2000/svg">
<rect x="4" y="2" width="40" height="40" rx="6" stroke="#8bfff0" stroke-width="4"/>
<path d="M1.30291 61V52.2727H2.35973V60.0625H6.41655V61H1.30291ZM7.91655 61V54.4545H8.92223V61H7.91655ZM8.42791 53.3636C8.23189 53.3636 8.06286 53.2969 7.92081 53.1634C7.78161 53.0298 7.712 52.8693 7.712 52.6818C7.712 52.4943 7.78161 52.3338 7.92081 52.2003C8.06286 52.0668 8.23189 52 8.42791 52C8.62393 52 8.79155 52.0668 8.93075 52.2003C9.0728 52.3338 9.14382 52.4943 9.14382 52.6818C9.14382 52.8693 9.0728 53.0298 8.93075 53.1634C8.79155 53.2969 8.62393 53.3636 8.42791 53.3636ZM11.7699 57.0625V61H10.7642V54.4545H11.7358V55.4773H11.821C11.9744 55.1449 12.2074 54.8778 12.5199 54.6761C12.8324 54.4716 13.2358 54.3693 13.7301 54.3693C14.1733 54.3693 14.5611 54.4602 14.8935 54.642C15.2259 54.821 15.4844 55.0938 15.669 55.4602C15.8537 55.8239 15.946 56.2841 15.946 56.8409V61H14.9403V56.9091C14.9403 56.3949 14.8068 55.9943 14.5398 55.7074C14.2727 55.4176 13.9063 55.2727 13.4403 55.2727C13.1193 55.2727 12.8324 55.3423 12.5795 55.4815C12.3295 55.6207 12.1321 55.8239 11.9872 56.0909C11.8423 56.358 11.7699 56.6818 11.7699 57.0625ZM18.7212 58.6136L18.7042 57.3693H18.9087L21.7724 54.4545H23.0167L19.9656 57.5398H19.8803L18.7212 58.6136ZM17.7837 61V52.2727H18.7894V61H17.7837ZM21.9428 61L19.386 57.7614L20.1019 57.0625L23.2212 61H21.9428ZM26.7859 61.1364C26.1552 61.1364 25.6112 60.9972 25.1538 60.7188C24.6992 60.4375 24.3484 60.0455 24.1012 59.5426C23.8569 59.0369 23.7347 58.4489 23.7347 57.7784C23.7347 57.108 23.8569 56.517 24.1012 56.0057C24.3484 55.4915 24.6921 55.0909 25.1325 54.804C25.5756 54.5142 26.0927 54.3693 26.6836 54.3693C27.0245 54.3693 27.3612 54.4261 27.6935 54.5398C28.0259 54.6534 28.3285 54.8381 28.6012 55.0938C28.8739 55.3466 29.0913 55.6818 29.2532 56.0994C29.4151 56.517 29.4961 57.0312 29.4961 57.642V58.0682H24.4506V57.1989H28.4734C28.4734 56.8295 28.3995 56.5 28.2518 56.2102C28.1069 55.9205 27.8995 55.6918 27.6296 55.5241C27.3626 55.3565 27.0472 55.2727 26.6836 55.2727C26.283 55.2727 25.9364 55.3722 25.6438 55.571C25.354 55.767 25.131 56.0227 24.9748 56.3381C24.8185 56.6534 24.7404 56.9915 24.7404 57.3523V57.9318C24.7404 58.4261 24.8256 58.8452 24.9961 59.1889C25.1694 59.5298 25.4094 59.7898 25.7163 59.9688C26.0231 60.1449 26.3796 60.233 26.7859 60.233C27.0501 60.233 27.2887 60.196 27.5018 60.1222C27.7177 60.0455 27.9038 59.9318 28.06 59.7812C28.2163 59.6278 28.337 59.4375 28.4222 59.2102L29.3938 59.483C29.2915 59.8125 29.1197 60.1023 28.8782 60.3523C28.6367 60.5994 28.3384 60.7926 27.9833 60.9318C27.6282 61.0682 27.229 61.1364 26.7859 61.1364ZM33.4975 61.1364C32.9521 61.1364 32.4705 60.9986 32.0529 60.723C31.6353 60.4446 31.3086 60.0526 31.0728 59.5469C30.837 59.0384 30.7191 58.4375 30.7191 57.7443C30.7191 57.0568 30.837 56.4602 31.0728 55.9545C31.3086 55.4489 31.6367 55.0582 32.0572 54.7827C32.4776 54.5071 32.9634 54.3693 33.5146 54.3693C33.9407 54.3693 34.2773 54.4403 34.5245 54.5824C34.7745 54.7216 34.9648 54.8807 35.0955 55.0597C35.229 55.2358 35.3327 55.3807 35.4066 55.4943H35.4918V52.2727H36.4975V61H35.5259V59.9943H35.4066C35.3327 60.1136 35.2276 60.2642 35.0913 60.446C34.9549 60.625 34.7603 60.7855 34.5075 60.9276C34.2546 61.0668 33.918 61.1364 33.4975 61.1364ZM33.6339 60.233C34.0373 60.233 34.3782 60.1278 34.6566 59.9176C34.935 59.7045 35.1467 59.4105 35.2915 59.0355C35.4364 58.6577 35.5089 58.2216 35.5089 57.7273C35.5089 57.2386 35.4379 56.8111 35.2958 56.4446C35.1538 56.0753 34.9435 55.7884 34.6651 55.5838C34.3867 55.3764 34.043 55.2727 33.6339 55.2727C33.2077 55.2727 32.8526 55.3821 32.5685 55.6009C32.2873 55.8168 32.0756 56.1108 31.9336 56.483C31.7944 56.8523 31.7248 57.267 31.7248 57.7273C31.7248 58.1932 31.7958 58.6165 31.9379 58.9972C32.0827 59.375 32.2958 59.6761 32.5771 59.9006C32.8612 60.1222 33.2134 60.233 33.6339 60.233ZM39.6722 52.2727V61H38.6154V52.2727H39.6722ZM42.6605 57.0625V61H41.6548V54.4545H42.6264V55.4773H42.7116C42.8651 55.1449 43.098 54.8778 43.4105 54.6761C43.723 54.4716 44.1264 54.3693 44.6207 54.3693C45.0639 54.3693 45.4517 54.4602 45.7841 54.642C46.1165 54.821 46.375 55.0938 46.5597 55.4602C46.7443 55.8239 46.8366 56.2841 46.8366 56.8409V61H45.831V56.9091C45.831 56.3949 45.6974 55.9943 45.4304 55.7074C45.1634 55.4176 44.7969 55.2727 44.331 55.2727C44.0099 55.2727 43.723 55.3423 43.4702 55.4815C43.2202 55.6207 43.0227 55.8239 42.8778 56.0909C42.733 56.358 42.6605 56.6818 42.6605 57.0625Z" fill="#8bfff0"/>
<path d="M26.0441 25.3463V34.2983H21.0469V18.6016H25.7988V21.4834H25.9725C26.32 20.5228 26.9127 19.77 27.7507 19.225C28.5886 18.6731 29.5867 18.3972 30.7449 18.3972C31.8486 18.3972 32.8058 18.6459 33.6165 19.1432C34.434 19.6337 35.0676 20.3218 35.5173 21.2075C35.9737 22.0863 36.1985 23.1151 36.1917 24.2937V34.2983H31.1945V25.2747C31.2013 24.4027 30.9799 23.7214 30.5303 23.2309C30.0875 22.7404 29.4709 22.4951 28.6806 22.4951C28.156 22.4951 27.6928 22.6109 27.2908 22.8426C26.8957 23.0674 26.5891 23.391 26.3711 23.8134C26.1599 24.2358 26.0509 24.7467 26.0441 25.3463Z" fill="#8bfff0"/>
<path d="M12.8699 34.2983V18.6016H17.8671V34.2983H12.8699ZM15.3736 16.7724C14.6719 16.7724 14.069 16.5407 13.5648 16.0775C13.0607 15.6074 12.8086 15.0419 12.8086 14.3811C12.8086 13.727 13.0607 13.1684 13.5648 12.7051C14.069 12.235 14.6719 12 15.3736 12C16.0821 12 16.6851 12.235 17.1824 12.7051C17.6866 13.1684 17.9386 13.727 17.9386 14.3811C17.9386 15.0419 17.6866 15.6074 17.1824 16.0775C16.6851 16.5407 16.0821 16.7724 15.3736 16.7724Z" fill="#8bfff0"/>
</svg>
