<svg width="211" height="45" viewBox="0 0 211 45" fill="none" xmlns="http://www.w3.org/2000/svg">
<rect width="211" height="45" rx="4" fill="white"/>
<path d="M10.1136 13.5455H12.6364L18.5682 28.0341H18.7727L24.7045 13.5455H27.2273V31H25.25V17.7386H25.0795L19.625 31H17.7159L12.2614 17.7386H12.0909V31H10.1136V13.5455ZM30.9811 31H28.7652L35.1743 13.5455H37.3561L43.7652 31H41.5493L36.3334 16.3068H36.197L30.9811 31ZM31.7993 24.1818H40.7311V26.0568H31.7993V24.1818ZM54.8294 17.9091C54.7271 17.0455 54.3124 16.375 53.5851 15.8977C52.8578 15.4205 51.9658 15.1818 50.9089 15.1818C50.1362 15.1818 49.4601 15.3068 48.8805 15.5568C48.3067 15.8068 47.8578 16.1506 47.5339 16.5881C47.2158 17.0256 47.0567 17.5227 47.0567 18.0795C47.0567 18.5455 47.1675 18.946 47.3891 19.2812C47.6163 19.6108 47.9061 19.8864 48.2584 20.108C48.6107 20.3239 48.98 20.5028 49.3663 20.6449C49.7527 20.7812 50.1078 20.892 50.4317 20.9773L52.2044 21.4545C52.6589 21.5739 53.1646 21.7386 53.7214 21.9489C54.2839 22.1591 54.8209 22.446 55.3322 22.8097C55.8493 23.1676 56.2754 23.6278 56.6107 24.1903C56.9459 24.7528 57.1135 25.4432 57.1135 26.2614C57.1135 27.2045 56.8663 28.0568 56.372 28.8182C55.8834 29.5795 55.1675 30.1847 54.2243 30.6335C53.2868 31.0824 52.1476 31.3068 50.8067 31.3068C49.5567 31.3068 48.4743 31.1051 47.5595 30.7017C46.6504 30.2983 45.9345 29.7358 45.4118 29.0142C44.8947 28.2926 44.6021 27.4545 44.5339 26.5H46.7158C46.7726 27.1591 46.9942 27.7045 47.3805 28.1364C47.7726 28.5625 48.2669 28.8807 48.8635 29.0909C49.4658 29.2955 50.1135 29.3977 50.8067 29.3977C51.6135 29.3977 52.3379 29.267 52.98 29.0057C53.622 28.7386 54.1305 28.3693 54.5055 27.8977C54.8805 27.4205 55.068 26.8636 55.068 26.2273C55.068 25.6477 54.9061 25.1761 54.5822 24.8125C54.2584 24.4489 53.8322 24.1534 53.3038 23.9261C52.7754 23.6989 52.2044 23.5 51.5908 23.3295L49.443 22.7159C48.0794 22.3239 46.9999 21.7642 46.2044 21.0369C45.4089 20.3097 45.0112 19.358 45.0112 18.1818C45.0112 17.2045 45.2754 16.3523 45.8038 15.625C46.3379 14.892 47.0538 14.3239 47.9516 13.9205C48.855 13.5114 49.8635 13.3068 50.9771 13.3068C52.1021 13.3068 53.1021 13.5085 53.9771 13.9119C54.8521 14.3097 55.5453 14.8551 56.0567 15.5483C56.5737 16.2415 56.8464 17.0284 56.8749 17.9091H54.8294ZM70.8432 13.5455H72.9568V25.1023C72.9568 26.2955 72.6756 27.3608 72.1131 28.2983C71.5563 29.2301 70.7693 29.9659 69.7523 30.5057C68.7352 31.0398 67.542 31.3068 66.1727 31.3068C64.8034 31.3068 63.6102 31.0398 62.5932 30.5057C61.5761 29.9659 60.7864 29.2301 60.2239 28.2983C59.667 27.3608 59.3886 26.2955 59.3886 25.1023V13.5455H61.5023V24.9318C61.5023 25.7841 61.6898 26.5426 62.0648 27.2074C62.4398 27.8665 62.9739 28.3864 63.667 28.767C64.3659 29.142 65.2011 29.3295 66.1727 29.3295C67.1443 29.3295 67.9795 29.142 68.6784 28.767C69.3773 28.3864 69.9114 27.8665 70.2807 27.2074C70.6557 26.5426 70.8432 25.7841 70.8432 24.9318V13.5455ZM81.3641 31H75.9777V13.5455H81.6027C83.2959 13.5455 84.7447 13.8949 85.9493 14.5938C87.1538 15.2869 88.0771 16.2841 88.7192 17.5852C89.3612 18.8807 89.6822 20.4318 89.6822 22.2386C89.6822 24.0568 89.3584 25.6222 88.7107 26.9347C88.0629 28.2415 87.1197 29.2472 85.8811 29.9517C84.6425 30.6506 83.1368 31 81.3641 31ZM78.0913 29.125H81.2277C82.6709 29.125 83.8669 28.8466 84.8158 28.2898C85.7646 27.733 86.472 26.9403 86.9379 25.9119C87.4038 24.8835 87.6368 23.6591 87.6368 22.2386C87.6368 20.8295 87.4067 19.6165 86.9464 18.5994C86.4862 17.5767 85.7987 16.7926 84.8839 16.2472C83.9692 15.696 82.83 15.4205 81.4663 15.4205H78.0913V29.125ZM98.2936 31H96.0777L102.487 13.5455H104.669L111.078 31H108.862L103.646 16.3068H103.51L98.2936 31ZM99.1118 24.1818H108.044V26.0568H99.1118V24.1818ZM112.596 31V13.5455H114.71V29.125H122.824V31H112.596ZM130.446 13.5455H132.969L138.901 28.0341H139.106L145.037 13.5455H147.56V31H145.583V17.7386H145.412L139.958 31H138.049L132.594 17.7386H132.424V31H130.446V13.5455ZM151.314 31H149.098L155.507 13.5455H157.689L164.098 31H161.882L156.666 16.3068H156.53L151.314 31ZM152.132 24.1818H161.064V26.0568H152.132V24.1818ZM165.617 31V13.5455H167.73V21.3182H177.037V13.5455H179.151V31H177.037V23.1932H167.73V31H165.617ZM187.569 31H182.182V13.5455H187.807C189.501 13.5455 190.949 13.8949 192.154 14.5938C193.359 15.2869 194.282 16.2841 194.924 17.5852C195.566 18.8807 195.887 20.4318 195.887 22.2386C195.887 24.0568 195.563 25.6222 194.915 26.9347C194.268 28.2415 193.324 29.2472 192.086 29.9517C190.847 30.6506 189.341 31 187.569 31ZM184.296 29.125H187.432C188.876 29.125 190.072 28.8466 191.02 28.2898C191.969 27.733 192.677 26.9403 193.143 25.9119C193.609 24.8835 193.841 23.6591 193.841 22.2386C193.841 20.8295 193.611 19.6165 193.151 18.5994C192.691 17.5767 192.003 16.7926 191.089 16.2472C190.174 15.696 189.035 15.4205 187.671 15.4205H184.296V29.125ZM200.346 13.5455V31H198.232V13.5455H200.346Z" fill="black"/>
</svg>
