<svg width="369" height="145" viewBox="0 0 369 145" fill="none" xmlns="http://www.w3.org/2000/svg">
<g style="mix-blend-mode:difference">
<path d="M2.27557 92V65.8182H12.7585C14.6847 65.8182 16.2912 66.1037 17.5781 66.6747C18.8651 67.2457 19.8324 68.0384 20.4801 69.0526C21.1278 70.0582 21.4517 71.2173 21.4517 72.5298C21.4517 73.5526 21.2472 74.4517 20.8381 75.2273C20.429 75.9943 19.8665 76.625 19.1506 77.1193C18.4432 77.6051 17.6335 77.9503 16.7216 78.1548V78.4105C17.7188 78.4531 18.652 78.7344 19.5213 79.2543C20.3991 79.7741 21.1108 80.5028 21.6562 81.4403C22.2017 82.3693 22.4744 83.4773 22.4744 84.7642C22.4744 86.1534 22.1293 87.3935 21.4389 88.4844C20.7571 89.5668 19.7472 90.4233 18.4091 91.054C17.071 91.6847 15.4219 92 13.4616 92H2.27557ZM7.81108 87.4744H12.3239C13.8665 87.4744 14.9915 87.1804 15.6989 86.5923C16.4063 85.9957 16.7599 85.2031 16.7599 84.2145C16.7599 83.4901 16.5852 82.8509 16.2358 82.2969C15.8864 81.7429 15.3878 81.3082 14.7401 80.9929C14.1009 80.6776 13.3381 80.5199 12.4517 80.5199H7.81108V87.4744ZM7.81108 76.7741H11.9148C12.6733 76.7741 13.3466 76.642 13.9347 76.3778C14.5313 76.1051 15 75.7216 15.3409 75.2273C15.6903 74.733 15.8651 74.1406 15.8651 73.4503C15.8651 72.5043 15.5284 71.7415 14.8551 71.1619C14.1903 70.5824 13.2443 70.2926 12.017 70.2926H7.81108V76.7741ZM24.2764 92V65.8182H34.6059C36.5832 65.8182 38.2707 66.1719 39.6684 66.8793C41.0746 67.5781 42.1442 68.571 42.8772 69.858C43.6187 71.1364 43.9894 72.6406 43.9894 74.3707C43.9894 76.1094 43.6144 77.6051 42.8644 78.858C42.1144 80.1023 41.0278 81.0568 39.6045 81.7216C38.1897 82.3864 36.4766 82.7188 34.4653 82.7188H27.5491V78.2699H33.5704C34.6272 78.2699 35.505 78.125 36.2039 77.8352C36.9028 77.5455 37.4227 77.1108 37.7636 76.5312C38.113 75.9517 38.2877 75.2315 38.2877 74.3707C38.2877 73.5014 38.113 72.7685 37.7636 72.1719C37.4227 71.5753 36.8985 71.1236 36.1911 70.8168C35.4923 70.5014 34.6102 70.3438 33.5448 70.3438H29.8119V92H24.2764ZM38.4156 80.0852L44.9227 92H38.8119L32.4454 80.0852H38.4156ZM51.6369 65.8182V92H46.1014V65.8182H51.6369ZM76.2903 65.8182V92H71.5091L60.1185 75.5213H59.9267V92H54.3912V65.8182H59.2491L70.5503 82.2841H70.7804V65.8182H76.2903ZM96.4246 74.2812C96.2457 73.6591 95.9943 73.1094 95.6704 72.6321C95.3465 72.1463 94.9502 71.7372 94.4815 71.4048C94.0212 71.0639 93.4928 70.804 92.8962 70.625C92.3082 70.446 91.6562 70.3565 90.9403 70.3565C89.6022 70.3565 88.4261 70.6889 87.4119 71.3537C86.4062 72.0185 85.6221 72.9858 85.0596 74.2557C84.4971 75.517 84.2158 77.0597 84.2158 78.8835C84.2158 80.7074 84.4928 82.2585 85.0468 83.5369C85.6008 84.8153 86.3849 85.7912 87.3991 86.4645C88.4133 87.1293 89.6107 87.4616 90.9914 87.4616C92.2443 87.4616 93.3139 87.2401 94.2002 86.7969C95.0951 86.3452 95.7769 85.7102 96.2457 84.892C96.7229 84.0739 96.9616 83.1065 96.9616 81.9901L98.0866 82.1562H91.3366V77.9886H102.293V81.2869C102.293 83.5881 101.807 85.5653 100.835 87.2188C99.8636 88.8636 98.5255 90.1335 96.821 91.0284C95.1164 91.9148 93.1647 92.358 90.9658 92.358C88.5113 92.358 86.355 91.8168 84.4971 90.7344C82.6391 89.6435 81.1903 88.0966 80.1505 86.0938C79.1193 84.0824 78.6036 81.696 78.6036 78.9347C78.6036 76.8125 78.9104 74.9205 79.5241 73.2585C80.1462 71.5881 81.0156 70.1733 82.132 69.0142C83.2485 67.8551 84.5482 66.973 86.0312 66.3679C87.5141 65.7628 89.1207 65.4602 90.8508 65.4602C92.3337 65.4602 93.7144 65.6776 94.9928 66.1122C96.2712 66.5384 97.4048 67.1435 98.3934 67.9276C99.3906 68.7116 100.204 69.6449 100.835 70.7273C101.466 71.8011 101.871 72.9858 102.05 74.2812H96.4246ZM109.649 65.8182H115.849L121.819 77.0938H122.075L128.045 65.8182H134.245L124.695 82.7443V92H119.198V82.7443L109.649 65.8182ZM157.946 78.9091C157.946 81.7642 157.405 84.1932 156.323 86.196C155.249 88.1989 153.783 89.7287 151.925 90.7855C150.075 91.8338 147.996 92.358 145.686 92.358C143.36 92.358 141.271 91.8295 139.422 90.7727C137.573 89.7159 136.111 88.1861 135.037 86.1832C133.963 84.1804 133.426 81.7557 133.426 78.9091C133.426 76.054 133.963 73.625 135.037 71.6222C136.111 69.6193 137.573 68.0937 139.422 67.0455C141.271 65.9886 143.36 65.4602 145.686 65.4602C147.996 65.4602 150.075 65.9886 151.925 67.0455C153.783 68.0937 155.249 69.6193 156.323 71.6222C157.405 73.625 157.946 76.054 157.946 78.9091ZM152.334 78.9091C152.334 77.0597 152.057 75.5 151.503 74.2301C150.958 72.9602 150.186 71.9972 149.189 71.3409C148.192 70.6847 147.024 70.3565 145.686 70.3565C144.348 70.3565 143.181 70.6847 142.183 71.3409C141.186 71.9972 140.411 72.9602 139.857 74.2301C139.311 75.5 139.038 77.0597 139.038 78.9091C139.038 80.7585 139.311 82.3182 139.857 83.5881C140.411 84.858 141.186 85.821 142.183 86.4773C143.181 87.1335 144.348 87.4616 145.686 87.4616C147.024 87.4616 148.192 87.1335 149.189 86.4773C150.186 85.821 150.958 84.858 151.503 83.5881C152.057 82.3182 152.334 80.7585 152.334 78.9091ZM176.419 65.8182H181.954V82.821C181.954 84.7301 181.498 86.4006 180.586 87.8324C179.683 89.2642 178.417 90.3807 176.789 91.1818C175.161 91.9744 173.265 92.3707 171.1 92.3707C168.927 92.3707 167.026 91.9744 165.399 91.1818C163.771 90.3807 162.505 89.2642 161.602 87.8324C160.698 86.4006 160.247 84.7301 160.247 82.821V65.8182H165.782V82.348C165.782 83.3452 166 84.2315 166.434 85.0071C166.877 85.7827 167.5 86.392 168.301 86.8352C169.102 87.2784 170.035 87.5 171.1 87.5C172.174 87.5 173.107 87.2784 173.9 86.8352C174.701 86.392 175.319 85.7827 175.754 85.0071C176.197 84.2315 176.419 83.3452 176.419 82.348V65.8182ZM184.708 92V65.8182H195.038C197.015 65.8182 198.703 66.1719 200.1 66.8793C201.507 67.5781 202.576 68.571 203.309 69.858C204.051 71.1364 204.421 72.6406 204.421 74.3707C204.421 76.1094 204.046 77.6051 203.296 78.858C202.546 80.1023 201.46 81.0568 200.037 81.7216C198.622 82.3864 196.909 82.7188 194.897 82.7188H187.981V78.2699H194.002C195.059 78.2699 195.937 78.125 196.636 77.8352C197.335 77.5455 197.855 77.1108 198.196 76.5312C198.545 75.9517 198.72 75.2315 198.72 74.3707C198.72 73.5014 198.545 72.7685 198.196 72.1719C197.855 71.5753 197.331 71.1236 196.623 70.8168C195.924 70.5014 195.042 70.3438 193.977 70.3438H190.244V92H184.708ZM198.848 80.0852L205.355 92H199.244L192.877 80.0852H198.848ZM7.81108 109.818V136H2.27557V109.818H7.81108ZM10.5654 109.818H17.3921L24.6023 127.409H24.9092L32.1194 109.818H38.9461V136H33.5768V118.959H33.3594L26.5839 135.872H22.9276L16.1521 118.895H15.9347V136H10.5654V109.818ZM46.2196 136H40.2878L49.3261 109.818H56.4597L65.4852 136H59.5534L52.9952 115.801H52.7906L46.2196 136ZM45.8489 125.709H59.8602V130.03H45.8489V125.709ZM82.9668 118.281C82.7879 117.659 82.5364 117.109 82.2126 116.632C81.8887 116.146 81.4924 115.737 81.0236 115.405C80.5634 115.064 80.035 114.804 79.4384 114.625C78.8504 114.446 78.1984 114.357 77.4825 114.357C76.1444 114.357 74.9683 114.689 73.954 115.354C72.9484 116.018 72.1643 116.986 71.6018 118.256C71.0393 119.517 70.758 121.06 70.758 122.884C70.758 124.707 71.035 126.259 71.589 127.537C72.143 128.815 72.9271 129.791 73.9413 130.464C74.9555 131.129 76.1529 131.462 77.5336 131.462C78.7864 131.462 79.856 131.24 80.7424 130.797C81.6373 130.345 82.3191 129.71 82.7879 128.892C83.2651 128.074 83.5038 127.107 83.5038 125.99L84.6288 126.156H77.8788V121.989H88.8347V125.287C88.8347 127.588 88.3489 129.565 87.3773 131.219C86.4058 132.864 85.0677 134.134 83.3631 135.028C81.6586 135.915 79.7069 136.358 77.508 136.358C75.0535 136.358 72.8972 135.817 71.0393 134.734C69.1813 133.643 67.7325 132.097 66.6927 130.094C65.6614 128.082 65.1458 125.696 65.1458 122.935C65.1458 120.812 65.4526 118.92 66.0663 117.259C66.6884 115.588 67.5577 114.173 68.6742 113.014C69.7907 111.855 71.0904 110.973 72.5734 110.368C74.0563 109.763 75.6629 109.46 77.393 109.46C78.8759 109.46 80.2566 109.678 81.535 110.112C82.8134 110.538 83.9469 111.143 84.9356 111.928C85.9327 112.712 86.7467 113.645 87.3773 114.727C88.008 115.801 88.4129 116.986 88.5918 118.281H82.9668ZM96.7283 109.818V136H91.1928V109.818H96.7283ZM121.382 109.818V136H116.6L105.21 119.521H105.018V136H99.4826V109.818H104.341L115.642 126.284H115.872V109.818H121.382ZM128.668 136H122.736L131.775 109.818H138.908L147.934 136H142.002L135.444 115.801H135.239L128.668 136ZM128.297 125.709H142.309V130.03H128.297V125.709ZM145.089 114.382V109.818H166.591V114.382H158.576V136H153.104V114.382H145.089ZM173.868 109.818V136H168.333V109.818H173.868ZM200.682 122.909C200.682 125.764 200.141 128.193 199.059 130.196C197.985 132.199 196.519 133.729 194.661 134.786C192.811 135.834 190.732 136.358 188.422 136.358C186.095 136.358 184.007 135.83 182.158 134.773C180.309 133.716 178.847 132.186 177.773 130.183C176.699 128.18 176.162 125.756 176.162 122.909C176.162 120.054 176.699 117.625 177.773 115.622C178.847 113.619 180.309 112.094 182.158 111.045C184.007 109.989 186.095 109.46 188.422 109.46C190.732 109.46 192.811 109.989 194.661 111.045C196.519 112.094 197.985 113.619 199.059 115.622C200.141 117.625 200.682 120.054 200.682 122.909ZM195.07 122.909C195.07 121.06 194.793 119.5 194.239 118.23C193.693 116.96 192.922 115.997 191.925 115.341C190.928 114.685 189.76 114.357 188.422 114.357C187.084 114.357 185.916 114.685 184.919 115.341C183.922 115.997 183.147 116.96 182.593 118.23C182.047 119.5 181.774 121.06 181.774 122.909C181.774 124.759 182.047 126.318 182.593 127.588C183.147 128.858 183.922 129.821 184.919 130.477C185.916 131.134 187.084 131.462 188.422 131.462C189.76 131.462 190.928 131.134 191.925 130.477C192.922 129.821 193.693 128.858 194.239 127.588C194.793 126.318 195.07 124.759 195.07 122.909ZM224.882 109.818V136H220.1L208.71 119.521H208.518V136H202.983V109.818H207.841L219.142 126.284H219.372V109.818H224.882ZM233.19 114.382V109.818H254.693V114.382H246.677V136H241.206V114.382H233.19ZM279.299 122.909C279.299 125.764 278.757 128.193 277.675 130.196C276.601 132.199 275.135 133.729 273.277 134.786C271.428 135.834 269.348 136.358 267.039 136.358C264.712 136.358 262.624 135.83 260.774 134.773C258.925 133.716 257.463 132.186 256.389 130.183C255.316 128.18 254.779 125.756 254.779 122.909C254.779 120.054 255.316 117.625 256.389 115.622C257.463 113.619 258.925 112.094 260.774 111.045C262.624 109.989 264.712 109.46 267.039 109.46C269.348 109.46 271.428 109.989 273.277 111.045C275.135 112.094 276.601 113.619 277.675 115.622C278.757 117.625 279.299 120.054 279.299 122.909ZM273.686 122.909C273.686 121.06 273.409 119.5 272.855 118.23C272.31 116.96 271.539 115.997 270.541 115.341C269.544 114.685 268.377 114.357 267.039 114.357C265.701 114.357 264.533 114.685 263.536 115.341C262.539 115.997 261.763 116.96 261.209 118.23C260.664 119.5 260.391 121.06 260.391 122.909C260.391 124.759 260.664 126.318 261.209 127.588C261.763 128.858 262.539 129.821 263.536 130.477C264.533 131.134 265.701 131.462 267.039 131.462C268.377 131.462 269.544 131.134 270.541 130.477C271.539 129.821 272.31 128.858 272.855 127.588C273.409 126.318 273.686 124.759 273.686 122.909ZM288.131 136V109.818H293.667V131.436H304.891V136H288.131ZM312.292 109.818V136H306.757V109.818H312.292ZM315.047 136V109.818H332.382V114.382H320.582V120.621H331.231V125.185H320.582V136H315.047ZM334.305 136V109.818H351.947V114.382H339.841V120.621H351.04V125.185H339.841V131.436H351.998V136H334.305Z" fill="white"/>
</g>
<g style="mix-blend-mode:color-dodge">
<rect x="1" y="1" width="145" height="47" stroke="white" stroke-width="2" stroke-dasharray="4 4"/>
<path d="M21.7955 19.9091C21.6989 18.9375 21.2699 18.1648 20.5085 17.5909C19.7472 17.017 18.7898 16.7301 17.6364 16.7301C16.8239 16.7301 16.108 16.8693 15.4886 17.1477C14.875 17.4261 14.392 17.8125 14.0398 18.3068C13.6932 18.7955 13.5199 19.3523 13.5199 19.9773C13.5199 20.4375 13.6193 20.8409 13.8182 21.1875C14.017 21.5341 14.2841 21.8324 14.6193 22.0824C14.9602 22.3267 15.3352 22.5369 15.7443 22.7131C16.1591 22.8892 16.5767 23.0369 16.9972 23.1562L18.8381 23.6847C19.3949 23.8381 19.9517 24.0341 20.5085 24.2727C21.0653 24.5114 21.5739 24.8125 22.0341 25.1761C22.5 25.5341 22.8722 25.9744 23.1506 26.4972C23.4347 27.0142 23.5767 27.6364 23.5767 28.3636C23.5767 29.2955 23.3352 30.1335 22.8523 30.8778C22.3693 31.6222 21.6761 32.2131 20.7727 32.6506C19.8693 33.0824 18.7869 33.2983 17.5256 33.2983C16.3381 33.2983 15.3068 33.1023 14.4318 32.7102C13.5568 32.3125 12.8693 31.7642 12.3693 31.0653C11.8693 30.3665 11.5881 29.5568 11.5256 28.6364H13.1619C13.2188 29.3239 13.446 29.9062 13.8438 30.3835C14.2415 30.8608 14.7585 31.2244 15.3949 31.4744C16.0312 31.7187 16.7415 31.8409 17.5256 31.8409C18.3949 31.8409 19.1676 31.696 19.8438 31.4062C20.5256 31.1108 21.0597 30.7017 21.446 30.179C21.8381 29.6506 22.0341 29.0369 22.0341 28.3381C22.0341 27.7472 21.8807 27.2528 21.5739 26.8551C21.267 26.4517 20.8381 26.1136 20.2869 25.8409C19.7415 25.5682 19.108 25.3267 18.3864 25.1165L16.2983 24.5028C14.929 24.0937 13.8665 23.5284 13.1108 22.8068C12.3551 22.0852 11.9773 21.1648 11.9773 20.0455C11.9773 19.108 12.2273 18.2841 12.7273 17.5739C13.233 16.858 13.9148 16.3011 14.7727 15.9034C15.6364 15.5 16.6051 15.2983 17.679 15.2983C18.7642 15.2983 19.7244 15.4972 20.5597 15.8949C21.3949 16.2926 22.0568 16.8409 22.5455 17.5398C23.0398 18.233 23.304 19.0227 23.3381 19.9091H21.7955ZM26.2119 33V15.5455H27.8057V23.5483H37.7091V15.5455H39.3028V33H37.7091V24.9801H27.8057V33H26.2119ZM57.0403 24.2727C57.0403 26.0909 56.7165 27.6733 56.0688 29.0199C55.421 30.3608 54.529 31.4006 53.3926 32.1392C52.2619 32.8722 50.9608 33.2386 49.4892 33.2386C48.0176 33.2386 46.7136 32.8722 45.5773 32.1392C44.4466 31.4006 43.5574 30.3608 42.9097 29.0199C42.2676 27.6733 41.9466 26.0909 41.9466 24.2727C41.9466 22.4545 42.2676 20.875 42.9097 19.5341C43.5574 18.1875 44.4494 17.1477 45.5858 16.4148C46.7222 15.6761 48.0233 15.3068 49.4892 15.3068C50.9608 15.3068 52.2619 15.6761 53.3926 16.4148C54.529 17.1477 55.421 18.1875 56.0688 19.5341C56.7165 20.875 57.0403 22.4545 57.0403 24.2727ZM55.4892 24.2727C55.4892 22.7102 55.2278 21.3722 54.7051 20.2585C54.1824 19.1392 53.4693 18.2841 52.5659 17.6932C51.6625 17.1023 50.6369 16.8068 49.4892 16.8068C48.3472 16.8068 47.3244 17.1023 46.421 17.6932C45.5176 18.2841 44.8017 19.1364 44.2733 20.25C43.7506 21.3636 43.4892 22.7045 43.4892 24.2727C43.4892 25.8352 43.7506 27.1733 44.2733 28.2869C44.796 29.4006 45.5091 30.2557 46.4125 30.8523C47.3159 31.4432 48.3415 31.7386 49.4892 31.7386C50.6369 31.7386 51.6625 31.4432 52.5659 30.8523C53.475 30.2614 54.1909 29.4091 54.7136 28.2955C55.2364 27.1761 55.4949 25.8352 55.4892 24.2727ZM62.7288 33L57.9476 15.5455H59.5669L63.5215 30.554H63.6578L67.6124 15.5455H69.4533L73.4078 30.554H73.5442L77.4987 15.5455H79.1266L74.3453 33H72.6408L68.5925 18.196H68.4817L64.4334 33H62.7288ZM93.6574 21H92.0551C91.9358 20.4034 91.7199 19.8523 91.4074 19.3466C91.1006 18.8352 90.7142 18.3892 90.2483 18.0085C89.7824 17.6278 89.254 17.3324 88.6631 17.1222C88.0722 16.9119 87.433 16.8068 86.7455 16.8068C85.6432 16.8068 84.6375 17.0937 83.7284 17.6676C82.825 18.2415 82.1006 19.0852 81.5551 20.1989C81.0153 21.3068 80.7455 22.6648 80.7455 24.2727C80.7455 25.892 81.0153 27.2557 81.5551 28.3636C82.1006 29.4716 82.825 30.3125 83.7284 30.8864C84.6375 31.4545 85.6432 31.7386 86.7455 31.7386C87.433 31.7386 88.0722 31.6335 88.6631 31.4233C89.254 31.2131 89.7824 30.9205 90.2483 30.5455C90.7142 30.1648 91.1006 29.7187 91.4074 29.2074C91.7199 28.696 91.9358 28.142 92.0551 27.5455H93.6574C93.5153 28.3466 93.2483 29.0938 92.8562 29.7869C92.4699 30.4744 91.9756 31.0767 91.3733 31.5938C90.7767 32.1108 90.0892 32.5142 89.3108 32.804C88.5324 33.0937 87.6773 33.2386 86.7455 33.2386C85.2795 33.2386 83.9784 32.8722 82.842 32.1392C81.7057 31.4006 80.8136 30.3608 80.1659 29.0199C79.5239 27.679 79.2028 26.0966 79.2028 24.2727C79.2028 22.4489 79.5239 20.8665 80.1659 19.5256C80.8136 18.1847 81.7057 17.1477 82.842 16.4148C83.9784 15.6761 85.2795 15.3068 86.7455 15.3068C87.6773 15.3068 88.5324 15.4517 89.3108 15.7415C90.0892 16.0256 90.7767 16.429 91.3733 16.9517C91.9756 17.4688 92.4699 18.071 92.8562 18.7585C93.2483 19.446 93.5153 20.1932 93.6574 21ZM96.2266 33H94.5561L100.906 15.5455H102.61L108.96 33H107.289L101.817 17.6165H101.698L96.2266 33ZM97.4283 26.3097H106.087V27.7415H97.4283V26.3097ZM120.228 19.9091C120.132 18.9375 119.703 18.1648 118.941 17.5909C118.18 17.017 117.223 16.7301 116.069 16.7301C115.257 16.7301 114.541 16.8693 113.921 17.1477C113.308 17.4261 112.825 17.8125 112.473 18.3068C112.126 18.7955 111.953 19.3523 111.953 19.9773C111.953 20.4375 112.052 20.8409 112.251 21.1875C112.45 21.5341 112.717 21.8324 113.052 22.0824C113.393 22.3267 113.768 22.5369 114.177 22.7131C114.592 22.8892 115.01 23.0369 115.43 23.1562L117.271 23.6847C117.828 23.8381 118.385 24.0341 118.941 24.2727C119.498 24.5114 120.007 24.8125 120.467 25.1761C120.933 25.5341 121.305 25.9744 121.583 26.4972C121.867 27.0142 122.01 27.6364 122.01 28.3636C122.01 29.2955 121.768 30.1335 121.285 30.8778C120.802 31.6222 120.109 32.2131 119.206 32.6506C118.302 33.0824 117.22 33.2983 115.958 33.2983C114.771 33.2983 113.74 33.1023 112.865 32.7102C111.99 32.3125 111.302 31.7642 110.802 31.0653C110.302 30.3665 110.021 29.5568 109.958 28.6364H111.595C111.652 29.3239 111.879 29.9062 112.277 30.3835C112.674 30.8608 113.191 31.2244 113.828 31.4744C114.464 31.7187 115.174 31.8409 115.958 31.8409C116.828 31.8409 117.6 31.696 118.277 31.4062C118.958 31.1108 119.492 30.7017 119.879 30.179C120.271 29.6506 120.467 29.0369 120.467 28.3381C120.467 27.7472 120.313 27.2528 120.007 26.8551C119.7 26.4517 119.271 26.1136 118.72 25.8409C118.174 25.5682 117.541 25.3267 116.819 25.1165L114.731 24.5028C113.362 24.0937 112.299 23.5284 111.544 22.8068C110.788 22.0852 110.41 21.1648 110.41 20.0455C110.41 19.108 110.66 18.2841 111.16 17.5739C111.666 16.858 112.348 16.3011 113.206 15.9034C114.069 15.5 115.038 15.2983 116.112 15.2983C117.197 15.2983 118.157 15.4972 118.992 15.8949C119.828 16.2926 120.49 16.8409 120.978 17.5398C121.473 18.233 121.737 19.0227 121.771 19.9091H120.228ZM124.645 33V15.5455H134.77V16.9773H126.238V23.5483H134.233V24.9801H126.238V31.5682H134.94V33H124.645Z" fill="white"/>
</g>
</svg>
