<svg width="147" height="49" viewBox="0 0 147 49" fill="none" xmlns="http://www.w3.org/2000/svg">
<g style="mix-blend-mode:color-dodge">
<rect x="1" y="1" width="145" height="47" stroke="white" stroke-width="2" stroke-dasharray="4 4"/>
<path d="M21.7955 19.9091C21.6989 18.9375 21.2699 18.1648 20.5085 17.5909C19.7472 17.017 18.7898 16.7301 17.6364 16.7301C16.8239 16.7301 16.108 16.8693 15.4886 17.1477C14.875 17.4261 14.392 17.8125 14.0398 18.3068C13.6932 18.7955 13.5199 19.3523 13.5199 19.9773C13.5199 20.4375 13.6193 20.8409 13.8182 21.1875C14.017 21.5341 14.2841 21.8324 14.6193 22.0824C14.9602 22.3267 15.3352 22.5369 15.7443 22.7131C16.1591 22.8892 16.5767 23.0369 16.9972 23.1562L18.8381 23.6847C19.3949 23.8381 19.9517 24.0341 20.5085 24.2727C21.0653 24.5114 21.5739 24.8125 22.0341 25.1761C22.5 25.5341 22.8722 25.9744 23.1506 26.4972C23.4347 27.0142 23.5767 27.6364 23.5767 28.3636C23.5767 29.2955 23.3352 30.1335 22.8523 30.8778C22.3693 31.6222 21.6761 32.2131 20.7727 32.6506C19.8693 33.0824 18.7869 33.2983 17.5256 33.2983C16.3381 33.2983 15.3068 33.1023 14.4318 32.7102C13.5568 32.3125 12.8693 31.7642 12.3693 31.0653C11.8693 30.3665 11.5881 29.5568 11.5256 28.6364H13.1619C13.2188 29.3239 13.446 29.9062 13.8438 30.3835C14.2415 30.8608 14.7585 31.2244 15.3949 31.4744C16.0312 31.7187 16.7415 31.8409 17.5256 31.8409C18.3949 31.8409 19.1676 31.696 19.8438 31.4062C20.5256 31.1108 21.0597 30.7017 21.446 30.179C21.8381 29.6506 22.0341 29.0369 22.0341 28.3381C22.0341 27.7472 21.8807 27.2528 21.5739 26.8551C21.267 26.4517 20.8381 26.1136 20.2869 25.8409C19.7415 25.5682 19.108 25.3267 18.3864 25.1165L16.2983 24.5028C14.929 24.0937 13.8665 23.5284 13.1108 22.8068C12.3551 22.0852 11.9773 21.1648 11.9773 20.0455C11.9773 19.108 12.2273 18.2841 12.7273 17.5739C13.233 16.858 13.9148 16.3011 14.7727 15.9034C15.6364 15.5 16.6051 15.2983 17.679 15.2983C18.7642 15.2983 19.7244 15.4972 20.5597 15.8949C21.3949 16.2926 22.0568 16.8409 22.5455 17.5398C23.0398 18.233 23.304 19.0227 23.3381 19.9091H21.7955ZM26.2119 33V15.5455H27.8057V23.5483H37.7091V15.5455H39.3028V33H37.7091V24.9801H27.8057V33H26.2119ZM57.0403 24.2727C57.0403 26.0909 56.7165 27.6733 56.0688 29.0199C55.421 30.3608 54.529 31.4006 53.3926 32.1392C52.2619 32.8722 50.9608 33.2386 49.4892 33.2386C48.0176 33.2386 46.7136 32.8722 45.5773 32.1392C44.4466 31.4006 43.5574 30.3608 42.9097 29.0199C42.2676 27.6733 41.9466 26.0909 41.9466 24.2727C41.9466 22.4545 42.2676 20.875 42.9097 19.5341C43.5574 18.1875 44.4494 17.1477 45.5858 16.4148C46.7222 15.6761 48.0233 15.3068 49.4892 15.3068C50.9608 15.3068 52.2619 15.6761 53.3926 16.4148C54.529 17.1477 55.421 18.1875 56.0688 19.5341C56.7165 20.875 57.0403 22.4545 57.0403 24.2727ZM55.4892 24.2727C55.4892 22.7102 55.2278 21.3722 54.7051 20.2585C54.1824 19.1392 53.4693 18.2841 52.5659 17.6932C51.6625 17.1023 50.6369 16.8068 49.4892 16.8068C48.3472 16.8068 47.3244 17.1023 46.421 17.6932C45.5176 18.2841 44.8017 19.1364 44.2733 20.25C43.7506 21.3636 43.4892 22.7045 43.4892 24.2727C43.4892 25.8352 43.7506 27.1733 44.2733 28.2869C44.796 29.4006 45.5091 30.2557 46.4125 30.8523C47.3159 31.4432 48.3415 31.7386 49.4892 31.7386C50.6369 31.7386 51.6625 31.4432 52.5659 30.8523C53.475 30.2614 54.1909 29.4091 54.7136 28.2955C55.2364 27.1761 55.4949 25.8352 55.4892 24.2727ZM62.7288 33L57.9476 15.5455H59.5669L63.5215 30.554H63.6578L67.6124 15.5455H69.4533L73.4078 30.554H73.5442L77.4987 15.5455H79.1266L74.3453 33H72.6408L68.5925 18.196H68.4817L64.4334 33H62.7288ZM93.6574 21H92.0551C91.9358 20.4034 91.7199 19.8523 91.4074 19.3466C91.1006 18.8352 90.7142 18.3892 90.2483 18.0085C89.7824 17.6278 89.254 17.3324 88.6631 17.1222C88.0722 16.9119 87.433 16.8068 86.7455 16.8068C85.6432 16.8068 84.6375 17.0937 83.7284 17.6676C82.825 18.2415 82.1006 19.0852 81.5551 20.1989C81.0153 21.3068 80.7455 22.6648 80.7455 24.2727C80.7455 25.892 81.0153 27.2557 81.5551 28.3636C82.1006 29.4716 82.825 30.3125 83.7284 30.8864C84.6375 31.4545 85.6432 31.7386 86.7455 31.7386C87.433 31.7386 88.0722 31.6335 88.6631 31.4233C89.254 31.2131 89.7824 30.9205 90.2483 30.5455C90.7142 30.1648 91.1006 29.7187 91.4074 29.2074C91.7199 28.696 91.9358 28.142 92.0551 27.5455H93.6574C93.5153 28.3466 93.2483 29.0938 92.8562 29.7869C92.4699 30.4744 91.9756 31.0767 91.3733 31.5938C90.7767 32.1108 90.0892 32.5142 89.3108 32.804C88.5324 33.0937 87.6773 33.2386 86.7455 33.2386C85.2795 33.2386 83.9784 32.8722 82.842 32.1392C81.7057 31.4006 80.8136 30.3608 80.1659 29.0199C79.5239 27.679 79.2028 26.0966 79.2028 24.2727C79.2028 22.4489 79.5239 20.8665 80.1659 19.5256C80.8136 18.1847 81.7057 17.1477 82.842 16.4148C83.9784 15.6761 85.2795 15.3068 86.7455 15.3068C87.6773 15.3068 88.5324 15.4517 89.3108 15.7415C90.0892 16.0256 90.7767 16.429 91.3733 16.9517C91.9756 17.4688 92.4699 18.071 92.8562 18.7585C93.2483 19.446 93.5153 20.1932 93.6574 21ZM96.2266 33H94.5561L100.906 15.5455H102.61L108.96 33H107.289L101.817 17.6165H101.698L96.2266 33ZM97.4283 26.3097H106.087V27.7415H97.4283V26.3097ZM120.228 19.9091C120.132 18.9375 119.703 18.1648 118.941 17.5909C118.18 17.017 117.223 16.7301 116.069 16.7301C115.257 16.7301 114.541 16.8693 113.921 17.1477C113.308 17.4261 112.825 17.8125 112.473 18.3068C112.126 18.7955 111.953 19.3523 111.953 19.9773C111.953 20.4375 112.052 20.8409 112.251 21.1875C112.45 21.5341 112.717 21.8324 113.052 22.0824C113.393 22.3267 113.768 22.5369 114.177 22.7131C114.592 22.8892 115.01 23.0369 115.43 23.1562L117.271 23.6847C117.828 23.8381 118.385 24.0341 118.941 24.2727C119.498 24.5114 120.007 24.8125 120.467 25.1761C120.933 25.5341 121.305 25.9744 121.583 26.4972C121.867 27.0142 122.01 27.6364 122.01 28.3636C122.01 29.2955 121.768 30.1335 121.285 30.8778C120.802 31.6222 120.109 32.2131 119.206 32.6506C118.302 33.0824 117.22 33.2983 115.958 33.2983C114.771 33.2983 113.74 33.1023 112.865 32.7102C111.99 32.3125 111.302 31.7642 110.802 31.0653C110.302 30.3665 110.021 29.5568 109.958 28.6364H111.595C111.652 29.3239 111.879 29.9062 112.277 30.3835C112.674 30.8608 113.191 31.2244 113.828 31.4744C114.464 31.7187 115.174 31.8409 115.958 31.8409C116.828 31.8409 117.6 31.696 118.277 31.4062C118.958 31.1108 119.492 30.7017 119.879 30.179C120.271 29.6506 120.467 29.0369 120.467 28.3381C120.467 27.7472 120.313 27.2528 120.007 26.8551C119.7 26.4517 119.271 26.1136 118.72 25.8409C118.174 25.5682 117.541 25.3267 116.819 25.1165L114.731 24.5028C113.362 24.0937 112.299 23.5284 111.544 22.8068C110.788 22.0852 110.41 21.1648 110.41 20.0455C110.41 19.108 110.66 18.2841 111.16 17.5739C111.666 16.858 112.348 16.3011 113.206 15.9034C114.069 15.5 115.038 15.2983 116.112 15.2983C117.197 15.2983 118.157 15.4972 118.992 15.8949C119.828 16.2926 120.49 16.8409 120.978 17.5398C121.473 18.233 121.737 19.0227 121.771 19.9091H120.228ZM124.645 33V15.5455H134.77V16.9773H126.238V23.5483H134.233V24.9801H126.238V31.5682H134.94V33H124.645Z" fill="white"/>
</g>
</svg>
