<svg width="217" height="27" viewBox="0 0 217 27"  fill="#ffffff" xmlns="http://www.w3.org/2000/svg">
<path d="M6.24 3.592C5.904 4.328 5.408 4.936 4.752 5.416C4.096 5.896 3.384 6.136 2.616 6.136C1.848 6.136 1.216 5.912 0.72 5.464C0.24 5.016 0 4.352 0 3.472C0 2.592 0.392 1.92 1.176 1.456C1.96 0.975999 2.88 0.735999 3.936 0.735999H13.464C13.512 0.959999 13.536 1.176 13.536 1.384C13.536 1.928 13.36 2.432 13.008 2.896C12.656 3.36 12.12 3.592 11.4 3.592C11.368 3.592 11.344 3.592 11.328 3.592H6.24ZM3.12 3.592C2.528 3.592 2.232 3.8 2.232 4.216C2.232 4.552 2.488 4.72 3 4.72C3.24 4.72 3.52 4.616 3.84 4.408C4.176 4.2 4.456 3.928 4.68 3.592H3.12ZM8.088 14.392C7.688 17.528 6.272 19.096 3.84 19.096C2.976 19.096 2.28 18.832 1.752 18.304C1.24 17.776 0.984 17.112 0.984 16.312C0.984 14.44 2.408 12.84 5.256 11.512L6.096 5.128C6.752 4.712 7.512 4.504 8.376 4.504C8.776 4.504 9.16 4.544 9.528 4.624L8.088 14.392ZM4.992 13.552C3.504 14.416 2.76 15.248 2.76 16.048C2.76 16.624 3.04 16.912 3.6 16.912C4.24 16.912 4.64 16.296 4.8 15.064L4.992 13.552ZM12.5638 13.624C13.5558 13.416 14.2918 13.016 14.7718 12.424C15.2678 11.832 15.5158 11.264 15.5158 10.72C15.5158 10.16 15.3638 9.784 15.0598 9.592C14.7718 9.384 14.4518 9.28 14.0998 9.28C13.3478 9.28 12.6838 9.704 12.1078 10.552C11.5478 11.384 11.2678 12.384 11.2678 13.552C11.2678 14.704 11.5398 15.568 12.0838 16.144C12.6438 16.704 13.3318 16.984 14.1478 16.984C15.3478 16.984 16.4998 16.568 17.6038 15.736C18.7078 14.904 19.6038 13.816 20.2918 12.472C20.6438 12.808 20.9638 13.224 21.2518 13.72C20.7238 14.92 19.7878 16.096 18.4438 17.248C17.7718 17.808 16.9718 18.264 16.0438 18.616C15.1318 18.968 14.1878 19.144 13.2118 19.144C11.6118 19.144 10.3478 18.656 9.41981 17.68C8.42781 16.624 7.93181 15.272 7.93181 13.624C7.93181 11.976 8.54781 10.536 9.77981 9.304C11.0278 8.072 12.5158 7.456 14.2438 7.456C15.4758 7.456 16.4758 7.728 17.2438 8.272C18.0118 8.8 18.4038 9.52 18.4198 10.432C18.4198 11.664 17.9238 12.664 16.9318 13.432C15.9558 14.2 14.6118 14.736 12.8998 15.04L12.5638 13.624ZM25.5915 10.864C25.5915 9.824 25.1275 9.304 24.1995 9.304C23.5115 9.304 22.8955 9.696 22.3515 10.48C21.7755 11.328 21.4875 12.32 21.4875 13.456C21.4875 14.592 21.7355 15.472 22.2315 16.096C22.7435 16.704 23.4395 17.008 24.3195 17.008C25.3755 17.008 26.4875 16.576 27.6555 15.712C28.8395 14.848 29.7915 13.776 30.5115 12.496C30.8315 12.736 31.1435 13.176 31.4475 13.816C30.9835 14.744 30.1195 15.784 28.8555 16.936C28.1995 17.544 27.3835 18.056 26.4075 18.472C25.3515 18.92 24.2955 19.144 23.2395 19.144C21.8155 19.144 20.6075 18.656 19.6155 17.68C18.6395 16.704 18.1515 15.432 18.1515 13.864C18.1515 11.96 18.7915 10.416 20.0715 9.232C21.3515 8.048 22.7835 7.456 24.3675 7.456C25.5995 7.456 26.5755 7.712 27.2955 8.224C28.0155 8.736 28.3755 9.408 28.3755 10.24C28.3755 10.784 28.1835 11.256 27.7995 11.656C27.0955 12.36 26.2395 12.712 25.2315 12.712C25.4715 11.912 25.5915 11.296 25.5915 10.864ZM34.6815 16.264L35.2575 10.96C35.2575 10.528 35.1455 10.168 34.9215 9.88C34.6975 9.592 34.3375 9.448 33.8415 9.448C33.3455 9.448 32.9215 9.648 32.5695 10.048C32.2335 10.432 31.9855 10.944 31.8255 11.584C31.7135 12.496 31.5455 13.832 31.3215 15.592C31.0975 17.336 30.9535 18.472 30.8895 19H27.6975C28.8495 9.192 29.5455 3.168 29.7855 0.927999C30.1215 0.799999 30.5775 0.735999 31.1535 0.735999C32.4015 0.735999 33.0255 1.104 33.0255 1.84V1.984C32.7535 4.496 32.4655 6.704 32.1615 8.608C33.0095 7.84 33.9695 7.456 35.0415 7.456C36.1135 7.456 36.9615 7.728 37.5855 8.272C38.2095 8.816 38.5215 9.504 38.5215 10.336C38.5215 10.56 38.4735 10.976 38.3775 11.584C38.0095 13.984 37.8255 15.392 37.8255 15.808C37.8255 16.56 38.0735 16.936 38.5695 16.936C38.9855 16.936 39.4255 16.664 39.8895 16.12C40.3695 15.56 40.7535 14.704 41.0415 13.552C41.5855 14.128 41.9135 14.584 42.0255 14.92C41.1935 17.704 39.7215 19.096 37.6095 19.096C36.6175 19.096 35.8815 18.792 35.4015 18.184C34.9215 17.576 34.6815 16.936 34.6815 16.264ZM45.6992 16.312L46.2752 10.96C46.2752 10.528 46.1632 10.168 45.9392 9.88C45.7152 9.592 45.3392 9.448 44.8112 9.448C44.2992 9.448 43.8592 9.68 43.4912 10.144C43.1392 10.592 42.9152 11.16 42.8192 11.848C42.2432 16.232 41.9392 18.616 41.9072 19H38.6672L39.9872 7.696C40.6592 7.52 41.1712 7.432 41.5232 7.432C42.5952 7.432 43.1552 7.824 43.2032 8.608C43.9872 7.84 44.9232 7.456 46.0112 7.456C47.1152 7.456 47.9792 7.728 48.6032 8.272C49.2272 8.816 49.5392 9.504 49.5392 10.336C49.5392 10.56 49.4912 10.984 49.3952 11.608C49.0272 14.04 48.8432 15.456 48.8432 15.856C48.8432 16.592 49.0912 16.96 49.5872 16.96C50.6752 16.96 51.4992 15.824 52.0592 13.552C52.6032 14.128 52.9312 14.584 53.0432 14.92C52.1952 17.736 50.7232 19.144 48.6272 19.144C47.6352 19.144 46.8992 18.84 46.4192 18.232C45.9392 17.624 45.6992 16.984 45.6992 16.312ZM56.3925 7.456C57.8645 7.456 59.0885 7.928 60.0645 8.872C61.0565 9.816 61.5525 10.968 61.5525 12.328C61.5525 14.392 60.9445 16.048 59.7285 17.296C58.5285 18.528 57.0725 19.144 55.3605 19.144C53.6485 19.144 52.2885 18.656 51.2805 17.68C50.2885 16.704 49.7925 15.496 49.7925 14.056C49.7925 12.04 50.4085 10.44 51.6405 9.256C52.8885 8.056 54.4725 7.456 56.3925 7.456ZM55.9125 9.4C55.1605 9.4 54.5285 9.832 54.0165 10.696C53.5045 11.56 53.2245 12.648 53.1765 13.96C53.1765 14.888 53.3605 15.656 53.7285 16.264C54.1125 16.872 54.6885 17.176 55.4565 17.176C56.2245 17.176 56.8645 16.752 57.3765 15.904C57.9045 15.056 58.1685 14.088 58.1685 13C58.1685 11.912 57.9845 11.048 57.6165 10.408C57.2485 9.736 56.6805 9.4 55.9125 9.4ZM64.5892 19.168C63.6132 19.168 62.8452 18.896 62.2852 18.352C61.7252 17.792 61.4452 17.032 61.4452 16.072C61.4452 15.816 61.8772 12.016 62.7412 4.672C62.9652 2.784 63.5652 1.592 64.5412 1.096C64.9892 0.855999 65.5252 0.735999 66.1492 0.735999C68.2612 0.735999 69.3172 1.712 69.3172 3.664C69.3172 3.824 69.3092 3.992 69.2932 4.168C69.1332 6.312 67.7892 8.496 65.2612 10.72C65.1812 11.504 65.0932 12.264 64.9972 13C64.8052 14.648 64.7092 15.56 64.7092 15.736C64.7092 16.568 65.0692 16.984 65.7892 16.984C66.5732 16.984 67.3012 16.536 67.9732 15.64C68.6612 14.728 69.1892 13.568 69.5572 12.16C69.7012 12.208 69.9012 12.344 70.1572 12.568C70.4132 12.776 70.5892 12.96 70.6853 13.12C70.4293 14.448 69.8532 15.72 68.9572 16.936C68.5092 17.56 67.9412 18.072 67.2532 18.472C66.4692 18.936 65.5812 19.168 64.5892 19.168ZM65.5252 8.32C66.9972 6.704 67.7332 5.256 67.7332 3.976C67.7332 3.208 67.4452 2.824 66.8692 2.824C66.5012 2.856 66.2532 3.096 66.1252 3.544C66.0132 3.992 65.9012 4.72 65.7892 5.728C65.6932 6.736 65.6292 7.36 65.5972 7.6L65.5252 8.32ZM73.7972 7.456C75.2692 7.456 76.4932 7.928 77.4692 8.872C78.4612 9.816 78.9572 10.968 78.9572 12.328C78.9572 14.392 78.3492 16.048 77.1332 17.296C75.9332 18.528 74.4772 19.144 72.7652 19.144C71.0532 19.144 69.6932 18.656 68.6852 17.68C67.6932 16.704 67.1972 15.496 67.1972 14.056C67.1972 12.04 67.8132 10.44 69.0452 9.256C70.2932 8.056 71.8772 7.456 73.7972 7.456ZM73.3172 9.4C72.5652 9.4 71.9332 9.832 71.4212 10.696C70.9092 11.56 70.6292 12.648 70.5812 13.96C70.5812 14.888 70.7652 15.656 71.1332 16.264C71.5172 16.872 72.0932 17.176 72.8612 17.176C73.6292 17.176 74.2692 16.752 74.7812 15.904C75.3092 15.056 75.5732 14.088 75.5732 13C75.5732 11.912 75.3892 11.048 75.0212 10.408C74.6532 9.736 74.0852 9.4 73.3172 9.4ZM85.2339 7.456C86.1139 7.456 86.9219 7.6 87.6579 7.888C88.1539 7.584 88.6739 7.432 89.2179 7.432C89.7619 7.432 90.1939 7.504 90.5139 7.648L89.6499 14.416C90.8339 13.504 91.7299 12.672 92.3379 11.92L93.0339 13.384C92.1219 14.344 90.9059 15.368 89.3859 16.456L88.7379 21.472C88.5619 22.976 88.0659 24.128 87.2499 24.928C86.4499 25.744 85.4099 26.152 84.1299 26.152C83.3939 26.152 82.6739 25.912 81.9699 25.432C81.2339 24.92 80.8659 24.096 80.8659 22.96C80.8659 21.568 81.5299 20.296 82.8579 19.144C81.7219 19.064 80.7459 18.592 79.9299 17.728C79.1139 16.864 78.7059 15.736 78.7059 14.344C78.7059 12.248 79.3219 10.576 80.5539 9.328C81.7859 8.08 83.3459 7.456 85.2339 7.456ZM85.5939 9.328C84.5699 9.328 83.7539 9.72 83.1459 10.504C82.5539 11.272 82.2019 12.424 82.0899 13.96C82.0739 14.104 82.0659 14.24 82.0659 14.368C82.0659 15.152 82.2499 15.776 82.6179 16.24C83.0019 16.704 83.4899 16.936 84.0819 16.936C85.0899 16.936 85.8499 16.232 86.3619 14.824L86.9619 9.616C86.4659 9.424 86.0099 9.328 85.5939 9.328ZM82.7139 22.6C82.7139 23.032 82.8339 23.368 83.0739 23.608C83.3299 23.864 83.6179 23.992 83.9379 23.992C84.8339 23.992 85.3539 23.424 85.4979 22.288L85.9059 18.688C83.7779 19.952 82.7139 21.256 82.7139 22.6ZM92.1754 1.336C92.5434 0.951999 92.9914 0.759999 93.5194 0.759999C94.0474 0.759999 94.4954 0.951999 94.8634 1.336C95.2474 1.704 95.4394 2.152 95.4394 2.68C95.4394 3.208 95.2474 3.656 94.8634 4.024C94.4954 4.392 94.0474 4.576 93.5194 4.576C92.9914 4.576 92.5434 4.392 92.1754 4.024C91.8074 3.656 91.6234 3.208 91.6234 2.68C91.6234 2.152 91.8074 1.704 92.1754 1.336ZM91.1914 8.368C91.3514 8.08 91.6554 7.864 92.1034 7.72C92.5514 7.56 92.9914 7.48 93.4234 7.48C93.8714 7.48 94.2634 7.536 94.5994 7.648C93.9754 12.464 93.6634 14.896 93.6634 14.944C93.5834 15.264 93.5434 15.536 93.5434 15.76C93.5434 15.968 93.5594 16.152 93.5914 16.312C93.6554 16.728 93.9434 16.936 94.4554 16.936C94.9834 16.936 95.4634 16.6 95.8954 15.928C96.3434 15.24 96.6794 14.464 96.9034 13.6C97.0154 13.664 97.1914 13.856 97.4314 14.176C97.6714 14.496 97.8154 14.736 97.8634 14.896C97.5434 16.176 96.9994 17.208 96.2314 17.992C95.4634 18.776 94.5434 19.168 93.4714 19.168C92.3994 19.168 91.5994 18.904 91.0714 18.376C90.5594 17.848 90.3034 17.168 90.3034 16.336C90.3034 16.16 90.3114 15.976 90.3274 15.784L91.1914 8.368ZM99.1701 13.624C100.162 13.416 100.898 13.016 101.378 12.424C101.874 11.832 102.122 11.264 102.122 10.72C102.122 10.16 101.97 9.784 101.666 9.592C101.378 9.384 101.058 9.28 100.706 9.28C99.9541 9.28 99.2901 9.704 98.7141 10.552C98.1541 11.384 97.8741 12.384 97.8741 13.552C97.8741 14.704 98.1461 15.568 98.6901 16.144C99.2501 16.704 99.9381 16.984 100.754 16.984C101.954 16.984 103.106 16.568 104.21 15.736C105.314 14.904 106.21 13.816 106.898 12.472C107.25 12.808 107.57 13.224 107.858 13.72C107.33 14.92 106.394 16.096 105.05 17.248C104.378 17.808 103.578 18.264 102.65 18.616C101.738 18.968 100.794 19.144 99.8181 19.144C98.2181 19.144 96.9541 18.656 96.0261 17.68C95.0341 16.624 94.5381 15.272 94.5381 13.624C94.5381 11.976 95.1541 10.536 96.3861 9.304C97.6341 8.072 99.1221 7.456 100.85 7.456C102.082 7.456 103.082 7.728 103.85 8.272C104.618 8.8 105.01 9.52 105.026 10.432C105.026 11.664 104.53 12.664 103.538 13.432C102.562 14.2 101.218 14.736 99.5061 15.04L99.1701 13.624ZM114.718 11.656C115.982 12.584 116.614 13.68 116.614 14.944C116.614 16.208 116.118 17.224 115.126 17.992C114.134 18.76 112.886 19.144 111.382 19.144C110.406 19.144 109.59 18.904 108.934 18.424C108.294 17.928 107.974 17.32 107.974 16.6C107.974 15.88 108.214 15.312 108.694 14.896C109.174 14.464 109.774 14.2 110.494 14.104C110.158 14.584 109.99 15.048 109.99 15.496C109.99 15.928 110.142 16.28 110.446 16.552C110.75 16.824 111.134 16.96 111.598 16.96C112.062 16.96 112.446 16.792 112.75 16.456C113.054 16.104 113.206 15.704 113.206 15.256C113.206 14.52 112.862 13.864 112.174 13.288C111.758 12.952 111.31 12.64 110.83 12.352C110.35 12.048 110.094 11.888 110.062 11.872C109.998 11.824 109.934 11.784 109.87 11.752C109.582 12.088 109.166 12.552 108.622 13.144C108.078 13.72 107.646 14.184 107.326 14.536C106.43 15.512 105.926 16.328 105.814 16.984C105.782 17.112 105.766 17.36 105.766 17.728C105.766 18.08 105.87 18.448 106.078 18.832C106.302 19.216 106.566 19.504 106.87 19.696C107.174 19.888 107.47 20.04 107.758 20.152C108.062 20.28 108.318 20.368 108.526 20.416C108.75 20.464 108.862 20.496 108.862 20.512C108.862 20.624 108.686 20.752 108.334 20.896C107.678 21.136 106.99 21.256 106.27 21.256C105.566 21.256 104.878 21 104.206 20.488C103.294 19.784 102.838 18.848 102.838 17.68C102.838 16.96 103.022 16.248 103.39 15.544C104.046 14.296 105.582 12.584 107.998 10.408C107.406 9.816 107.11 9.184 107.11 8.512C107.11 7.84 107.358 7.272 107.854 6.808C108.366 6.344 108.966 6.112 109.654 6.112C110.278 6.112 110.822 6.36 111.286 6.856C111.59 7.192 111.742 7.616 111.742 8.128C111.742 8.64 111.574 9.216 111.238 9.856C112.95 10.624 114.11 11.224 114.718 11.656ZM109.51 8.944C109.894 8.544 110.086 8.256 110.086 8.08C110.086 7.68 109.91 7.464 109.558 7.432C109.158 7.432 108.958 7.656 108.958 8.104C108.958 8.376 109.142 8.656 109.51 8.944ZM125.359 3.592C125.023 4.328 124.527 4.936 123.871 5.416C123.215 5.896 122.503 6.136 121.735 6.136C120.967 6.136 120.335 5.912 119.839 5.464C119.359 5.016 119.119 4.352 119.119 3.472C119.119 2.592 119.511 1.92 120.295 1.456C121.079 0.975999 121.999 0.735999 123.055 0.735999H132.583C132.631 0.959999 132.655 1.176 132.655 1.384C132.655 1.928 132.479 2.432 132.127 2.896C131.775 3.36 131.239 3.592 130.519 3.592C130.487 3.592 130.463 3.592 130.447 3.592H125.359ZM122.239 3.592C121.647 3.592 121.351 3.8 121.351 4.216C121.351 4.552 121.607 4.72 122.119 4.72C122.359 4.72 122.639 4.616 122.959 4.408C123.295 4.2 123.575 3.928 123.799 3.592H122.239ZM127.207 14.392C126.807 17.528 125.391 19.096 122.959 19.096C122.095 19.096 121.399 18.832 120.871 18.304C120.359 17.776 120.103 17.112 120.103 16.312C120.103 14.44 121.527 12.84 124.375 11.512L125.215 5.128C125.871 4.712 126.631 4.504 127.495 4.504C127.895 4.504 128.279 4.544 128.647 4.624L127.207 14.392ZM124.111 13.552C122.623 14.416 121.879 15.248 121.879 16.048C121.879 16.624 122.159 16.912 122.719 16.912C123.359 16.912 123.759 16.296 123.919 15.064L124.111 13.552ZM134.966 16.264L135.542 10.96C135.542 10.528 135.43 10.168 135.206 9.88C134.982 9.592 134.622 9.448 134.126 9.448C133.63 9.448 133.206 9.648 132.854 10.048C132.518 10.432 132.27 10.944 132.11 11.584C131.998 12.496 131.83 13.832 131.606 15.592C131.382 17.336 131.238 18.472 131.174 19H127.982C129.134 9.192 129.83 3.168 130.07 0.927999C130.406 0.799999 130.862 0.735999 131.438 0.735999C132.686 0.735999 133.31 1.104 133.31 1.84V1.984C133.038 4.496 132.75 6.704 132.446 8.608C133.294 7.84 134.254 7.456 135.326 7.456C136.398 7.456 137.246 7.728 137.87 8.272C138.494 8.816 138.806 9.504 138.806 10.336C138.806 10.56 138.758 10.976 138.662 11.584C138.294 13.984 138.11 15.392 138.11 15.808C138.11 16.56 138.358 16.936 138.854 16.936C139.27 16.936 139.71 16.664 140.174 16.12C140.654 15.56 141.038 14.704 141.326 13.552C141.87 14.128 142.198 14.584 142.31 14.92C141.478 17.704 140.006 19.096 137.894 19.096C136.902 19.096 136.166 18.792 135.686 18.184C135.206 17.576 134.966 16.936 134.966 16.264ZM149.824 19.12C148.352 19.12 147.376 18.608 146.896 17.584C146.064 18.624 144.992 19.144 143.68 19.144C142.384 19.144 141.288 18.704 140.392 17.824C139.512 16.944 139.072 15.784 139.072 14.344C139.072 12.248 139.688 10.576 140.92 9.328C142.152 8.08 143.712 7.456 145.6 7.456C145.648 7.456 145.696 7.456 145.744 7.456C146.544 7.456 147.28 7.592 147.952 7.864C148.384 7.592 148.904 7.456 149.512 7.456C150.136 7.456 150.584 7.536 150.856 7.696C150.712 8.88 150.56 10.048 150.4 11.2C150.24 12.336 150.128 13.144 150.064 13.624C149.92 14.712 149.848 15.496 149.848 15.976C149.848 16.616 150.104 16.936 150.616 16.936C151.016 16.936 151.44 16.672 151.888 16.144C152.336 15.6 152.728 14.752 153.064 13.6C153.528 14.016 153.848 14.48 154.024 14.992C153.56 16.512 152.936 17.584 152.152 18.208C151.368 18.816 150.592 19.12 149.824 19.12ZM145.96 9.328C144.936 9.328 144.12 9.72 143.512 10.504C142.92 11.272 142.568 12.424 142.456 13.96C142.44 14.104 142.432 14.24 142.432 14.368C142.432 15.152 142.616 15.776 142.984 16.24C143.368 16.704 143.856 16.936 144.448 16.936C145.456 16.936 146.216 16.224 146.728 14.8L147.304 9.616C146.84 9.424 146.392 9.328 145.96 9.328ZM156.516 2.296C156.516 2.392 156.3 4.112 155.868 7.456H159.396V9.304H155.628L155.556 9.904C157.428 11.472 158.364 13.184 158.364 15.04C158.364 16.496 157.988 17.544 157.236 18.184C156.5 18.824 155.612 19.144 154.572 19.144C153.532 19.144 152.772 18.872 152.292 18.328C151.812 17.768 151.572 17.096 151.572 16.312C151.572 16.136 151.588 15.944 151.62 15.736L152.364 9.352L152.268 9.304H150.324C150.308 9.144 150.3 8.888 150.3 8.536C150.3 8.168 150.372 7.808 150.516 7.456H152.58L153.348 0.927999C153.684 0.799999 154.132 0.735999 154.692 0.735999C155.908 0.735999 156.516 1.256 156.516 2.296ZM156.756 15.016C156.756 13.912 156.276 12.824 155.316 11.752C155.028 14.136 154.884 15.512 154.884 15.88C154.884 16.6 155.116 16.96 155.58 16.96C155.916 16.96 156.196 16.808 156.42 16.504C156.644 16.184 156.756 15.688 156.756 15.016ZM174.767 3.448C174.511 3.336 174.255 3.28 173.999 3.28C173.759 3.28 173.519 3.432 173.279 3.736C173.055 4.04 172.903 4.48 172.823 5.056L171.575 13.96C171.351 15.576 170.791 16.848 169.895 17.776C169.015 18.704 167.911 19.168 166.583 19.168C165.255 19.168 164.223 18.8 163.487 18.064C162.767 17.312 162.407 16.424 162.407 15.4C162.407 14.36 162.759 13.48 163.463 12.76C164.183 12.04 165.087 11.68 166.175 11.68C166.847 11.68 167.375 11.728 167.759 11.824L167.639 13.288C167.367 13.224 166.943 13.192 166.367 13.192C165.807 13.192 165.303 13.384 164.855 13.768C164.423 14.152 164.207 14.632 164.207 15.208C164.207 15.784 164.367 16.232 164.687 16.552C165.007 16.856 165.391 17.008 165.839 17.008C167.183 17.008 167.967 16.016 168.191 14.032C168.623 10.064 168.935 7.384 169.127 5.992C168.167 6.328 167.319 6.496 166.583 6.496C165.415 6.496 164.519 6.224 163.895 5.68C163.287 5.136 162.983 4.424 162.983 3.544C162.983 2.664 163.295 1.976 163.919 1.48C164.559 0.967999 165.359 0.711999 166.319 0.711999C166.911 0.711999 167.759 0.895999 168.863 1.264C169.983 1.632 170.847 1.816 171.455 1.816C172.543 1.816 173.455 1.536 174.191 0.975999C174.591 1.536 174.791 2.2 174.791 2.968C174.791 3.128 174.783 3.288 174.767 3.448ZM165.359 4.192C165.359 4.432 165.487 4.64 165.743 4.816C166.015 4.992 166.415 5.08 166.943 5.08C167.487 5.08 168.191 4.84 169.055 4.36C168.431 4.216 167.791 4.056 167.135 3.88C166.479 3.688 166.087 3.592 165.959 3.592C165.559 3.592 165.359 3.792 165.359 4.192ZM186.482 1.288C186.578 1.16 186.882 1.04 187.394 0.927999C187.922 0.799999 188.418 0.735999 188.882 0.735999C189.346 0.735999 189.73 0.799999 190.034 0.927999C188.866 10.272 188.282 15.104 188.282 15.424C188.282 15.744 188.378 16.032 188.57 16.288C188.778 16.528 189.074 16.648 189.458 16.648C190.514 16.648 191.458 15.2 192.29 12.304C192.29 12.272 192.298 12.232 192.314 12.184C192.33 12.136 192.338 12.104 192.338 12.088C193.042 12.536 193.498 12.816 193.706 12.928C193.178 14.944 192.522 16.488 191.738 17.56C190.954 18.616 189.946 19.144 188.714 19.144C187.482 19.144 186.65 18.56 186.218 17.392H186.146C185.65 18.016 185.098 18.464 184.49 18.736C183.882 19.008 183.122 19.144 182.21 19.144C180.706 19.144 179.546 18.752 178.73 17.968C177.93 17.184 177.53 16.064 177.53 14.608C177.53 14.304 177.554 13.968 177.602 13.6L178.274 7.984C176.69 6.864 175.898 5.544 175.898 4.024C175.898 3.016 176.202 2.216 176.81 1.624C177.418 1.032 178.194 0.735999 179.138 0.735999C181.106 0.735999 182.09 1.776 182.09 3.856C182.09 4.192 182.066 4.568 182.018 4.984L180.794 14.368C180.778 14.48 180.77 14.648 180.77 14.872C180.77 15.496 180.914 16 181.202 16.384C181.49 16.768 181.93 16.96 182.522 16.96C183.946 16.96 184.786 15.856 185.042 13.648L186.482 1.288ZM178.25 2.944C177.706 2.944 177.434 3.28 177.434 3.952C177.434 4.608 177.802 5.256 178.538 5.896L178.61 5.272C178.706 4.44 178.762 3.92 178.778 3.712C178.778 3.2 178.602 2.944 178.25 2.944ZM199.96 11.656C201.224 12.584 201.856 13.68 201.856 14.944C201.856 16.208 201.36 17.224 200.368 17.992C199.376 18.76 198.128 19.144 196.624 19.144C195.648 19.144 194.832 18.904 194.176 18.424C193.536 17.928 193.216 17.32 193.216 16.6C193.216 15.88 193.456 15.312 193.936 14.896C194.416 14.464 195.016 14.2 195.736 14.104C195.4 14.584 195.232 15.048 195.232 15.496C195.232 15.928 195.384 16.28 195.688 16.552C195.992 16.824 196.376 16.96 196.84 16.96C197.304 16.96 197.688 16.792 197.992 16.456C198.296 16.104 198.448 15.704 198.448 15.256C198.448 14.52 198.104 13.864 197.416 13.288C197 12.952 196.552 12.64 196.072 12.352C195.592 12.048 195.336 11.888 195.304 11.872C195.24 11.824 195.176 11.784 195.112 11.752C194.824 12.088 194.408 12.552 193.864 13.144C193.32 13.72 192.888 14.184 192.568 14.536C191.672 15.512 191.168 16.328 191.056 16.984C191.024 17.112 191.008 17.36 191.008 17.728C191.008 18.08 191.112 18.448 191.32 18.832C191.544 19.216 191.808 19.504 192.112 19.696C192.416 19.888 192.712 20.04 193 20.152C193.304 20.28 193.56 20.368 193.768 20.416C193.992 20.464 194.104 20.496 194.104 20.512C194.104 20.624 193.928 20.752 193.576 20.896C192.92 21.136 192.232 21.256 191.512 21.256C190.808 21.256 190.12 21 189.448 20.488C188.536 19.784 188.08 18.848 188.08 17.68C188.08 16.96 188.264 16.248 188.632 15.544C189.288 14.296 190.824 12.584 193.24 10.408C192.648 9.816 192.352 9.184 192.352 8.512C192.352 7.84 192.6 7.272 193.096 6.808C193.608 6.344 194.208 6.112 194.896 6.112C195.52 6.112 196.064 6.36 196.528 6.856C196.832 7.192 196.984 7.616 196.984 8.128C196.984 8.64 196.816 9.216 196.48 9.856C198.192 10.624 199.352 11.224 199.96 11.656ZM194.752 8.944C195.136 8.544 195.328 8.256 195.328 8.08C195.328 7.68 195.152 7.464 194.8 7.432C194.4 7.432 194.2 7.656 194.2 8.104C194.2 8.376 194.384 8.656 194.752 8.944ZM205.544 13.624C206.536 13.416 207.272 13.016 207.752 12.424C208.248 11.832 208.496 11.264 208.496 10.72C208.496 10.16 208.344 9.784 208.04 9.592C207.752 9.384 207.432 9.28 207.08 9.28C206.328 9.28 205.664 9.704 205.088 10.552C204.528 11.384 204.248 12.384 204.248 13.552C204.248 14.704 204.52 15.568 205.064 16.144C205.624 16.704 206.312 16.984 207.128 16.984C208.328 16.984 209.48 16.568 210.584 15.736C211.688 14.904 212.584 13.816 213.272 12.472C213.624 12.808 213.944 13.224 214.232 13.72C213.704 14.92 212.768 16.096 211.424 17.248C210.752 17.808 209.952 18.264 209.024 18.616C208.112 18.968 207.168 19.144 206.192 19.144C204.592 19.144 203.328 18.656 202.4 17.68C201.408 16.624 200.912 15.272 200.912 13.624C200.912 11.976 201.528 10.536 202.76 9.304C204.008 8.072 205.496 7.456 207.224 7.456C208.456 7.456 209.456 7.728 210.224 8.272C210.992 8.8 211.384 9.52 211.4 10.432C211.4 11.664 210.904 12.664 209.912 13.432C208.936 14.2 207.592 14.736 205.88 15.04L205.544 13.624ZM212.979 7.72C213.363 7.336 213.827 7.144 214.371 7.144C214.915 7.144 215.379 7.336 215.763 7.72C216.147 8.104 216.339 8.568 216.339 9.112C216.339 9.656 216.147 10.12 215.763 10.504C215.379 10.872 214.915 11.056 214.371 11.056C213.827 11.056 213.363 10.872 212.979 10.504C212.611 10.12 212.427 9.656 212.427 9.112C212.427 8.568 212.611 8.104 212.979 7.72ZM211.995 16.12C212.379 15.736 212.843 15.544 213.387 15.544C213.931 15.544 214.395 15.736 214.779 16.12C215.163 16.504 215.355 16.968 215.355 17.512C215.355 18.056 215.163 18.52 214.779 18.904C214.395 19.272 213.931 19.456 213.387 19.456C212.843 19.456 212.379 19.272 211.995 18.904C211.627 18.52 211.443 18.056 211.443 17.512C211.443 16.968 211.627 16.504 211.995 16.12Z"/>
</svg>
