<svg width="44" height="64" viewBox="0 0 44 64" fill="none" xmlns="http://www.w3.org/2000/svg">
<rect x="2" y="2" width="40" height="40" rx="6" stroke="#4f9" stroke-width="4"/>
<path d="M1.75728 53.2102V52.2727H8.30273V53.2102H5.55842V61H4.5016V53.2102H1.75728ZM10.5304 61L8.53604 54.4545H9.59286L11.0076 59.4659H11.0758L12.4735 54.4545H13.5474L14.9281 59.4489H14.9963L16.411 54.4545H17.4679L15.4735 61H14.4849L13.0531 55.9716H12.9508L11.519 61H10.5304ZM18.7974 61V54.4545H19.8031V61H18.7974ZM19.3088 53.3636C19.1127 53.3636 18.9437 53.2969 18.8017 53.1634C18.6625 53.0298 18.5929 52.8693 18.5929 52.6818C18.5929 52.4943 18.6625 52.3338 18.8017 52.2003C18.9437 52.0668 19.1127 52 19.3088 52C19.5048 52 19.6724 52.0668 19.8116 52.2003C19.9537 52.3338 20.0247 52.4943 20.0247 52.6818C20.0247 52.8693 19.9537 53.0298 19.8116 53.1634C19.6724 53.2969 19.5048 53.3636 19.3088 53.3636ZM24.4917 54.4545V55.3068H21.0996V54.4545H24.4917ZM22.0882 52.8864H23.0939V59.125C23.0939 59.4091 23.1351 59.6222 23.2175 59.7642C23.3027 59.9034 23.4107 59.9972 23.5414 60.0455C23.6749 60.0909 23.8155 60.1136 23.9632 60.1136C24.074 60.1136 24.165 60.108 24.236 60.0966C24.307 60.0824 24.3638 60.071 24.4064 60.0625L24.611 60.9659C24.5428 60.9915 24.4476 61.017 24.3255 61.0426C24.2033 61.071 24.0485 61.0852 23.861 61.0852C23.5769 61.0852 23.2985 61.0241 23.0257 60.902C22.7559 60.7798 22.5314 60.5938 22.3525 60.3438C22.1763 60.0938 22.0882 59.7784 22.0882 59.3977V52.8864ZM28.851 54.4545V55.3068H25.459V54.4545H28.851ZM26.4476 52.8864H27.4533V59.125C27.4533 59.4091 27.4945 59.6222 27.5769 59.7642C27.6621 59.9034 27.7701 59.9972 27.9007 60.0455C28.0343 60.0909 28.1749 60.1136 28.3226 60.1136C28.4334 60.1136 28.5243 60.108 28.5953 60.0966C28.6664 60.0824 28.7232 60.071 28.7658 60.0625L28.9703 60.9659C28.9022 60.9915 28.807 61.017 28.6848 61.0426C28.5627 61.071 28.4078 61.0852 28.2203 61.0852C27.9363 61.0852 27.6578 61.0241 27.3851 60.902C27.1152 60.7798 26.8908 60.5938 26.7118 60.3438C26.5357 60.0938 26.4476 59.7784 26.4476 59.3977V52.8864ZM33.0378 61.1364C32.4071 61.1364 31.8631 60.9972 31.4057 60.7188C30.9512 60.4375 30.6003 60.0455 30.3532 59.5426C30.1088 59.0369 29.9867 58.4489 29.9867 57.7784C29.9867 57.108 30.1088 56.517 30.3532 56.0057C30.6003 55.4915 30.9441 55.0909 31.3844 54.804C31.8276 54.5142 32.3446 54.3693 32.9355 54.3693C33.2765 54.3693 33.6131 54.4261 33.9455 54.5398C34.2779 54.6534 34.5804 54.8381 34.8532 55.0938C35.1259 55.3466 35.3432 55.6818 35.5051 56.0994C35.6671 56.517 35.748 57.0312 35.748 57.642V58.0682H30.7026V57.1989H34.7253C34.7253 56.8295 34.6515 56.5 34.5037 56.2102C34.3588 55.9205 34.1515 55.6918 33.8816 55.5241C33.6145 55.3565 33.2992 55.2727 32.9355 55.2727C32.535 55.2727 32.1884 55.3722 31.8958 55.571C31.606 55.767 31.383 56.0227 31.2267 56.3381C31.0705 56.6534 30.9924 56.9915 30.9924 57.3523V57.9318C30.9924 58.4261 31.0776 58.8452 31.248 59.1889C31.4213 59.5298 31.6614 59.7898 31.9682 59.9688C32.275 60.1449 32.6316 60.233 33.0378 60.233C33.302 60.233 33.5407 60.196 33.7537 60.1222C33.9696 60.0455 34.1557 59.9318 34.312 59.7812C34.4682 59.6278 34.589 59.4375 34.6742 59.2102L35.6458 59.483C35.5435 59.8125 35.3716 60.1023 35.1301 60.3523C34.8887 60.5994 34.5904 60.7926 34.2353 60.9318C33.8801 61.0682 33.481 61.1364 33.0378 61.1364ZM37.2779 61V54.4545H38.2495V55.4432H38.3176C38.437 55.1193 38.6529 54.8565 38.9654 54.6548C39.2779 54.4531 39.6301 54.3523 40.0222 54.3523C40.0961 54.3523 40.1884 54.3537 40.2992 54.3565C40.41 54.3594 40.4938 54.3636 40.5506 54.3693V55.392C40.5165 55.3835 40.4384 55.3707 40.3162 55.3537C40.1969 55.3338 40.0705 55.3239 39.937 55.3239C39.6188 55.3239 39.3347 55.3906 39.0847 55.5241C38.8375 55.6548 38.6415 55.8366 38.4966 56.0696C38.3546 56.2997 38.2836 56.5625 38.2836 56.858V61H37.2779Z" fill="#4f9"/>
<path fill-rule="evenodd" clip-rule="evenodd" d="M3.00023 12L15.5268 24.5267L28.0535 12L32 12V16.2851L19.6426 28.6425L32 40.9999H23.7684L15.5268 32.7583L7.28514 41H3L3.00025 37.0531L11.411 28.6425L3.00023 20.2316V12ZM16.2571 30.0773L24.8903 38.7105L25.8947 37.9474L16.9761 29.0287L16.2571 30.0773ZM14.9713 27.024L14.0586 28.0263L5.42537 19.3931L6.05263 18.1053L14.9713 27.024Z" fill="#4f9"/>
</svg>
